<svg xmlns="http://www.w3.org/2000/svg" viewBox="0 0 149.94 164.22"><g id="Layer_2" data-name="Layer 2"><g id="Layer_1-2" data-name="Layer 1"><path d="M131.86,10.26c.09,2.44,0-1.31.16-.61,0,0-7.2,10.6-7.3,10.52.5.43-1.78-.2-.1.28,1.44.41,3.41-.37,5,.11,3.46,1,4.89,3.51,5.35,6.86,0,0,.16-1.44,0-.24-.17,1-.26,2-.49,3,.33-1.42,0,0-.25.54.91-2,.31-.62.09-.26.36-.6.65-1.21,1-1.8.58-.88,2.48-2.38,2.65-3.33.11-.58,1.11-.25.16-.15-.62.06-1.71.92-2.55,1.19-3.43,1.1-7.31.81-10.87.83-6.13,0-12.26,0-18.38,0q-25.2,0-50.39,0L22.3,27.16,10.59,47.22a17.12,17.12,0,0,1,8.47,2.22c6.11,3.39,7.8,9.34,8,16,.43,14.73.2,29.5.1,44.24,0,4.87.05,9.75-.12,14.61,0,.55,0,1.1,0,1.64,0,.34.11,1.22,0,.26l.12-.45q-2.23,6.74,7.16-9.27c-1.64-.1-3.33,1.1-5.25.54a7.19,7.19,0,0,1-4.73-5.37,18.6,18.6,0,0,1-.4-2.08c-.18-1.08,0,1.71,0,.09a3.58,3.58,0,0,1,.19-1.32l-.08.35a16.74,16.74,0,0,1-7.3,10.52c-.72-.2-.51.13.42.16s1.84-.1,2.73-.1c2.58,0,5.18.15,7.76.18,12.32.12,24.64,0,37-.19,3,0,6.41-4.81,7.84-6.69,2-2.72,5.45-7.15,5.45-10.78V29.84L63,44.73v92.56c0,2.09.11,4.21,0,6.29,0,.7-.13,1.37-.22,2.06,0,.34-.12.67-.18,1-.37,1.91.51-1.63-.15.44-.52,1.66,0-.11.19-.29-.51,1.08-.41.93.3-.46a21.13,21.13,0,0,1,3.07-4c.09-.55,1.73-.55-.21.13-.44.16-1.5.68-2.18.91a20.16,20.16,0,0,1-6.65.78,14.8,14.8,0,0,1-10.69-4.88c-2.84-3.15-4.28-7.82-4.43-12s-8,3.78-8.43,4.33c-3,3.6-6.58,8.6-6.41,13.53.49,13.95,13.13,22.29,26.33,17.85,12.93-4.35,23.92-21,24.53-34.55,1.05-23.52,0-47.31,0-70.85V29.84c0-4.93-4.67-1.13-6.51.7C68.22,33.66,63,39.87,63,44.73v71.91L76.3,99.16c-13.65.2-27.31.43-41,.14-3.4-.08-6.66-.47-9.85,1C19,103.35,14,110.71,11.22,117c-2.1,4.7-3.24,10-.88,14.8,5.43,11.08,17.89,2.81,23.16-3.67,4.38-5.38,8.28-12.06,8.39-19.18.26-16.38.28-32.79.17-49.18-.07-9.09,1.42-20.25-5.62-27.31-3.55-3.55-9.16-5.4-14.14-5.31-4.29.09-8.69,7.48-10.53,10.65-.83,1.44-5.19,9.4-1.18,9.41,34,.08,68,.24,102,.06,5.68,0,11.2,0,16.37-2.81,7.58-4.11,13.4-12,17.09-19.64,2.85-5.9,6.3-15.11,1.57-21.08-6.23-7.85-16.79-1.81-21.73,4-4.77,5.58-9.12,12.82-8.85,20.42.15,4.13,8-3.77,8.44-4.32,3-3.61,6.58-8.61,6.4-13.54Z"/><path d="M0,71.64c-.22,5.53,2.52,10.14,8.2,11.25a52.19,52.19,0,0,0,9.44.47c11.12.11,22.26.09,33.38.08q36.24,0,72.46-.2a33.14,33.14,0,0,0,5.08-.16c11-1.77,20.16-16.15,21.31-26.33.57-5.14-5-.78-6.51.7-3.51,3.48-7.78,9-8.36,14.19-.78,7,11.64-10.1,7.2-9.3-.07,0-1.53.56-.89.44-.59.11-1.16.29-1.76.36-.34,0-.68,0-1,0-2.22.12-4.48,0-6.7,0l-29.23.1c-23.22.07-46.45.18-69.67,0-3.25,0-6.52.05-9.76-.13-2.44-.13-4.91-.65-6.6-2.6a7.49,7.49,0,0,1-1.45-2.92c-.23-.74-.17-3-.25-.93.19-5-4.79-1-6.51.7C5.09,60.7.21,66.67,0,71.64Z"/><path d="M99,44.64c0,33-.19,66,0,99,.07,12,7.4,20,19.58,20.58,4.13.21,8.81-7.69,10.53-10.65.9-1.56,5.18-9.2,1.18-9.41-6-.3-11.81-2.8-14.54-8.43a20.11,20.11,0,0,1-1.67-5.6c-.11-.75-.26-4.1-.21-1.38-.08-4.85,0-9.7,0-14.55V29.75c0-4.93-4.67-1.13-6.51.7C104.22,33.57,99,39.78,99,44.64Z"/></g></g></svg>