<svg xmlns="http://www.w3.org/2000/svg" viewBox="0 0 215.63 144.33"><g id="Layer_2" data-name="Layer 2"><g id="Layer_1-2" data-name="Layer 1"><path d="M87.78,54.33v90c0-.85,4.72-5,5.45-5.88,1.13-1.34,4.83-4.47,4.83-6.38v-90c0,.85-4.72,5-5.45,5.87-1.12,1.35-4.83,4.48-4.83,6.39Z"/><path d="M96.78,90.33c11.17-.42,19-10.7,24.71-19.11,5.51-8.07,3.81-19.29,4.07-28.65,0,.92-4.68,5-5.45,5.87-1.16,1.39-4.78,4.43-4.83,6.39-.19,6.64.22,13.56-.72,20.12a27.79,27.79,0,0,1-1.26,4.65c-2,6.23,9.53-8,5.08-5.59a37.87,37.87,0,0,1-5.26,2.81,20.9,20.9,0,0,1-6.06,1.25c-1.49.05-4.54,4.79-5.45,5.87-.65.78-4.06,6.36-4.83,6.39Z"/><path d="M93.92,21.68c-.08-2,1.33-3.61,2.89-3.41a29.31,29.31,0,0,1,6,1.58A32.11,32.11,0,0,1,112.84,26a28.91,28.91,0,0,1,6.79,8.88l.47,1,.34.91c.2.57.35,1.08.46,1.5.22.85.24,1.37,0,1.48s-.68-.18-1.29-.77c-.3-.3-.65-.67-1-1.1l-.59-.69-.71-.71A37.26,37.26,0,0,0,109.75,30a30.32,30.32,0,0,0-9-3.82A31.81,31.81,0,0,0,96,25.42C94.81,25.27,94,23.67,93.92,21.68Z"/><path d="M93.92,3.68c-.08-2,1.33-3.61,2.89-3.41a29.31,29.31,0,0,1,6,1.58A32.11,32.11,0,0,1,112.84,8a28.91,28.91,0,0,1,6.79,8.88l.47,1,.34.91c.2.57.35,1.08.46,1.5.22.85.24,1.37,0,1.48s-.68-.18-1.29-.77c-.3-.3-.65-.67-1-1.1l-.59-.69-.71-.71A37.26,37.26,0,0,0,109.75,12a30.32,30.32,0,0,0-9-3.82A31.81,31.81,0,0,0,96,7.42C94.81,7.27,94,5.67,93.92,3.68Z"/><path d="M70.78,55.33c0,12,.4,24.11,0,36.13a94.28,94.28,0,0,1-8.09,33.79c-.49,1.16-1,2.3-1.6,3.42l5.9-6.58c-1.13,0-2.21,1.25-3.61,1.2A8,8,0,0,1,58.64,121a20.55,20.55,0,0,1-4.58-6s-5,5.39-5.45,5.87c-.59.71-5.32,5.46-4.83,6.39,2.23,4.26,7,10.27,12.39,7.41,4.73-2.53,8.55-8.65,11.7-12.78,3.94-5.17,6.29-11.26,8.28-17.4,4.62-14.2,4.91-27.38,4.91-42V43.07c0,.85-4.72,5-5.45,5.87-1.12,1.35-4.83,4.48-4.83,6.39Z"/><path d="M51.78,54.33c0,12,.4,24.11,0,36.13a94.28,94.28,0,0,1-8.09,33.79c-.49,1.16-1,2.3-1.6,3.42l5.9-6.58c-1.13,0-2.21,1.25-3.61,1.2A8,8,0,0,1,39.64,120a20.55,20.55,0,0,1-4.58-6s-5,5.39-5.45,5.87c-.59.71-5.32,5.46-4.83,6.39,2.23,4.26,7,10.27,12.39,7.41,4.73-2.53,8.55-8.65,11.7-12.78,3.94-5.17,6.29-11.26,8.28-17.4,4.62-14.2,4.91-27.38,4.91-42V42.07c0,.85-4.72,5-5.45,5.87-1.12,1.35-4.83,4.48-4.83,6.39Z"/><path d="M33.78,54.33v36c0-.85,4.72-5,5.45-5.88,1.13-1.34,4.83-4.47,4.83-6.38v-36c0,.85-4.72,5-5.45,5.87-1.12,1.35-4.83,4.48-4.83,6.39Z"/><path d="M35.06,42.07A20.65,20.65,0,0,0,24.25,45c-3.58,2.18-6.32,5.72-9,8.88-2.84,3.39-6.1,6.91-7.52,11.18-4,12.16,3.74,25.51,17,25.26,1.45,0,4.56-4.82,5.45-5.88.63-.75,4.1-6.37,4.83-6.38A17.34,17.34,0,0,1,17.46,64,22.27,22.27,0,0,1,18,53.13c.21-.64,1.13-2,1.11-2.6l-6.56,7.82.64-.5a37.51,37.51,0,0,1,3.46-1.91,20.56,20.56,0,0,1,8.16-1.61c1.39,0,4.61-4.87,5.45-5.88.6-.71,4.18-6.39,4.83-6.38Z"/><path d="M12.34,38.91a2.76,2.76,0,0,1-1.77,2.33,5,5,0,0,1-4-.19,9.59,9.59,0,0,1-1.24-.67,7.85,7.85,0,0,1-1.06-.73A9.54,9.54,0,0,1,3,38.52a11.67,11.67,0,0,1-1.3-1.61c-.2-.32-.37-.67-.56-1a5.33,5.33,0,0,1-.48-1.12A12.29,12.29,0,0,1,0,29.62a13.85,13.85,0,0,1,1.69-5.46,11.74,11.74,0,0,1,4.62-4.41A13.66,13.66,0,0,1,9.29,18.6a13.33,13.33,0,0,1,1.55-.33c.25-.05.53-.07.81-.11a5.23,5.23,0,0,1,1.12,0,12.58,12.58,0,0,1,3.18.76A25.78,25.78,0,0,1,18.62,20a48.21,48.21,0,0,1,8.86,5.89c1.31,1,2.45,2.13,3.58,3.12s2.1,2,3,3,1.69,1.83,2.39,2.62,1.25,1.52,1.71,2.12c.91,1.21,1.35,2,1.18,2.15s-1-.24-2.19-1.1c-.61-.43-1.33-1-2.16-1.61s-1.77-1.31-2.78-2.08l-3.32-2.41c-1.21-.79-2.43-1.71-3.78-2.52a48.76,48.76,0,0,0-8.53-4.48,22.41,22.41,0,0,0-2.2-.71c-.37-.11-.71-.15-1.05-.22a4.24,4.24,0,0,0-.83-.08.44.44,0,0,0-.15,0l-.46.1c-.31.08-.62.18-.92.29a7.76,7.76,0,0,0-1.66.81,5.61,5.61,0,0,0-2,2.28,7.5,7.5,0,0,0-.62,2.85,5.49,5.49,0,0,0,.41,2.24,1.15,1.15,0,0,0,.2.38c.08.11.13.23.2.33s.29.39.5.52a6,6,0,0,0,1.61,1A4.93,4.93,0,0,1,12.34,38.91Z"/><path d="M30.81,21.43c-.07-2,1.34-3.61,2.9-3.41a28.53,28.53,0,0,1,5.95,1.57,32.18,32.18,0,0,1,10.07,6.1,29.06,29.06,0,0,1,6.79,8.89l.48,1,.33.91c.2.58.36,1.08.47,1.51.21.84.23,1.36,0,1.48s-.67-.19-1.28-.78c-.31-.29-.65-.66-1-1.09l-.59-.69-.7-.71a37,37,0,0,0-7.57-6.42,30.37,30.37,0,0,0-9-3.82,29.71,29.71,0,0,0-4.81-.75C31.7,25,30.88,23.41,30.81,21.43Z"/><path d="M30.81,3.43c-.07-2,1.34-3.61,2.9-3.41a28.53,28.53,0,0,1,5.95,1.57,32.18,32.18,0,0,1,10.07,6.1,29.06,29.06,0,0,1,6.79,8.89l.48,1,.33.91c.2.58.36,1.08.47,1.51.21.84.23,1.36,0,1.48s-.67-.19-1.28-.78c-.31-.29-.65-.66-1-1.09l-.59-.69-.7-.71a37,37,0,0,0-7.57-6.42,30.37,30.37,0,0,0-9-3.82,29.71,29.71,0,0,0-4.81-.75C31.7,7,30.88,5.41,30.81,3.43Z"/><path d="M129.23,21.28c-.07-2,1.34-3.61,2.9-3.41a28.37,28.37,0,0,1,6,1.57,32.18,32.18,0,0,1,10.07,6.1,29.06,29.06,0,0,1,6.79,8.89l.48,1,.33.91c.2.58.36,1.08.47,1.51.21.84.23,1.36,0,1.48s-.67-.19-1.28-.78c-.3-.29-.65-.66-1-1.09l-.58-.69-.71-.71a36.78,36.78,0,0,0-7.57-6.42,30.37,30.37,0,0,0-9-3.82,29.71,29.71,0,0,0-4.81-.75C130.12,24.87,129.31,23.26,129.23,21.28Z"/><path d="M187.32,55.24c8.15-.15,16,4.73,17.62,13a23.29,23.29,0,0,1-.42,10.66c-.31,1.11-1,2.12-1.25,3.2l-.48.86,6.39-7.81c-1.11.33-2.31,1.58-3.44,2.08A19.46,19.46,0,0,1,197.61,79c-1.39,0-4.61,4.87-5.45,5.87-.6.71-4.19,6.4-4.84,6.39a19.62,19.62,0,0,0,10.78-3.18c3.54-2.31,6.3-6,9-9.14,2.85-3.41,6-6.91,7.4-11.2,4.19-12.5-3.36-25-16.86-24.74-1.46,0-4.57,4.82-5.45,5.87-.63.76-4.11,6.37-4.84,6.39Z"/><path d="M177.78,54.33c0,14.52,1.31,29.59-.82,44-1.43,9.72-4.52,18.59-8.08,27.7-1.93,4.93-2.11-2.9,5.1-5-.75.21-1.29.84-2.09,1a5.69,5.69,0,0,1-3-.11c-2.09-.61-3.79-2.32-5.14-3.94-2.72-3.23-2.66-6.43-4.77-9.89-6.69-11-22.53-12.18-33.94-12.12l-10.28,12.26c11.22-.42,19.38-10.93,25-19.5,4.82-7.39,3.5-17.15,3.52-25.55,0-7.07,0-14.14-.22-21.21,0,.79-4.75,5-5.45,5.87-1.09,1.3-4.88,4.53-4.83,6.39.33,12.43,1.36,25.64-.15,38a19.35,19.35,0,0,1-1.12,4.81,17.57,17.57,0,0,1-.88,1.86q10.51-11,5.75-7a39.49,39.49,0,0,1-5.26,2.81,20.9,20.9,0,0,1-6.06,1.25c-1.49.05-4.54,4.79-5.45,5.87-.62.74-4.13,6.38-4.83,6.39,11.31-.07,26.76,1.11,33.67,11.69,2.74,4.2,2.41,8,6.33,11.74,5.29,5.09,9.51,1.63,13.6-2.94a67.55,67.55,0,0,0,14.77-25.26,96.92,96.92,0,0,0,4.91-30V42.07c0,.85-4.72,5-5.45,5.87-1.12,1.35-4.83,4.48-4.83,6.39Z"/><path d="M150.78,54.33v72c0-.85,4.72-5,5.45-5.88,1.13-1.34,4.83-4.47,4.83-6.38v-72c0,.85-4.72,5-5.45,5.87-1.12,1.35-4.83,4.48-4.83,6.39Z"/></g></g></svg>