<?xml version="1.0" encoding="UTF-8"?><svg xmlns="http://www.w3.org/2000/svg" viewBox="0 0 199.52 126.57"><defs><style>.d{fill:#010101;}</style></defs><g id="a"/><g id="b"><g id="c"><path class="d" d="M117.09,36.56V126.56c0-.85,4.72-5,5.45-5.87,1.13-1.35,4.84-4.48,4.84-6.39V24.3c0,.85-4.72,5-5.45,5.87-1.13,1.35-4.84,4.48-4.84,6.39h0Z"/><path class="d" d="M126.09,72.56c11.17-.42,18.97-10.69,24.71-19.1s3.81-19.3,4.08-28.66c-.03,.92-4.68,4.96-5.45,5.87-1.17,1.39-4.78,4.43-4.84,6.39-.19,6.64,.22,13.56-.72,20.12-.23,1.64-.77,3.08-1.26,4.65-1.97,6.23,9.53-7.98,5.08-5.59-1.79,.96-3.31,2.12-5.26,2.81s-4.01,1.17-6.06,1.25c-1.49,.06-4.54,4.79-5.45,5.87-.65,.78-4.07,6.36-4.84,6.39h0Z"/><path class="d" d="M162.09,36.56v36c0-.85,4.72-5,5.45-5.87,1.13-1.35,4.84-4.48,4.84-6.39V24.3c0,.85-4.72,5-5.45,5.87-1.13,1.35-4.84,4.48-4.84,6.39h0Z"/><path class="d" d="M171.09,36.56c5.21,.05,10.86,2.29,14.22,6.32,7.98,9.56,2.2,24.26-3.4,33.44-.73,1.2-1.5,2.39-2.31,3.54-.98,1.4-1.96,2.51-.02,.25,1-1.16,1.7-1.6,.6-.74,.14-.11,.68-.72,.3-.32-3.87,4.09-7.56,8.38-10.96,12.87-3.14,4.15-6.26,8.73-7.19,13.95-.81,4.56,1.41,7.35,4.88,10.03,6.33,4.89,14.32,8.13,21.87,10.66,.87,.29,4.88-5.19,5.45-5.87,.41-.49,4.75-6.41,4.84-6.39-6.56-2.2-13.15-4.99-19-8.69-3.02-1.91-7.12-4.59-7.89-8.37-.57-2.78,.62-6.02,1.74-8.51,.65-1.46,1.58-2.75,2.33-4.14,1.87-3.45-5.81,6.37-4.52,5.18,7.06-6.54,13.37-14.9,18.59-22.95,5.87-9.05,12.11-22.29,7.01-33.02-2.86-6.02-9.74-9.43-16.25-9.49-1.41-.01-4.6,4.86-5.45,5.87-.61,.72-4.17,6.39-4.84,6.39h0Z"/><path class="d" d="M122.23,3.43c-.07-2,1.34-3.61,2.9-3.41,.39,.05,2.8,.4,5.95,1.57,3.14,1.15,6.97,3.28,10.08,6.1,3.12,2.81,5.55,6.15,6.79,8.88l.48,.96,.33,.91c.2,.57,.36,1.08,.47,1.5,.22,.85,.24,1.37,.01,1.48s-.67-.18-1.28-.78c-.31-.3-.65-.67-1.03-1.09l-.59-.69-.71-.71c-1.84-2.08-4.56-4.51-7.56-6.41-3.01-1.92-6.33-3.2-8.97-3.82-2.64-.63-4.53-.72-4.81-.75-1.16-.15-1.97-1.76-2.05-3.74Z"/><path class="d" d="M99.09,37.33c0,12.02,.4,24.12,0,36.13s-3.52,23.37-8.09,33.79c-.49,1.16-1.02,2.3-1.6,3.41l5.9-6.58c-1.13,.02-2.21,1.25-3.61,1.2-1.8-.07-3.41-1.1-4.73-2.24-1.88-1.62-3.43-3.78-4.58-5.98,0,0-5.04,5.39-5.45,5.87-.59,.71-5.32,5.46-4.84,6.39,2.23,4.27,7.03,10.27,12.39,7.41,4.73-2.53,8.55-8.65,11.7-12.78,3.94-5.17,6.29-11.26,8.29-17.4,4.62-14.2,4.91-27.38,4.91-41.99V25.08c0,.85-4.72,5-5.45,5.87-1.13,1.35-4.84,4.48-4.84,6.39h0Z"/><path class="d" d="M99.6,23.61c-3.71-.07-7.65,1.02-10.81,2.94-3.58,2.18-6.31,5.72-8.97,8.88-2.84,3.39-6.1,6.91-7.52,11.18-4.05,12.16,3.74,25.51,17.02,25.25,1.46-.03,4.57-4.82,5.45-5.87,.63-.76,4.11-6.37,4.84-6.39-8.56,.17-16-5.61-17.6-14.06-.67-3.55-.64-7.43,.5-10.88,.21-.64,1.13-1.95,1.11-2.6l-6.56,7.82,.64-.5c1.18-.62,2.21-1.39,3.45-1.91,2.53-1.05,5.41-1.66,8.16-1.61,1.39,.03,4.61-4.87,5.45-5.87,.6-.71,4.19-6.4,4.84-6.39h0Z"/><path class="d" d="M54.09,36.09v36c0-.85,4.72-5,5.45-5.87,1.13-1.35,4.84-4.48,4.84-6.39V23.83c0,.85-4.72,5-5.45,5.87-1.13,1.35-4.84,4.48-4.84,6.39h0Z"/><path class="d" d="M32.23,3.43c-.07-2,1.34-3.61,2.9-3.41,.39,.05,2.8,.4,5.95,1.57,3.14,1.15,6.97,3.28,10.08,6.1,3.12,2.81,5.55,6.15,6.79,8.88l.48,.96,.33,.91c.2,.57,.36,1.08,.47,1.5,.22,.85,.24,1.37,.01,1.48s-.67-.18-1.28-.78c-.31-.3-.65-.67-1.03-1.09l-.59-.69-.71-.71c-1.84-2.08-4.56-4.51-7.56-6.41-3.01-1.92-6.33-3.2-8.97-3.82-2.64-.63-4.53-.72-4.81-.75-1.16-.15-1.97-1.76-2.05-3.74Z"/><path class="d" d="M54.09,81.09c-.02,2.48-.6,5.05-1.53,7.33s-3.54,5.28,1.85-1.26,2.42-2.85-.46-1.67c-2.39,.98-5.24,1.5-7.83,1.33-3.96-.25-7.56-2.52-8.5-6.55-.39-1.66-.16-3.22,0-4.88l.58-1.67c-8.63,8.38-11.02,11.32-7.15,8.82,.52-.2,1-.56,1.54-.76,1.1-.42,2.32-.68,3.5-.7,1.45-.03,4.57-4.82,5.45-5.87,.63-.75,4.11-6.37,4.84-6.39-2.16,.04-4.37,.81-6.1,2.09-4.44,3.3-8.89,8.93-11.68,13.67-3.84,6.51-.03,14.09,7.46,14.49,10.75,.57,17.66-9.2,23.34-16.88,2.87-3.88,4.94-8.46,4.98-13.37,0,.87-4.71,4.99-5.45,5.87-1.14,1.36-4.82,4.46-4.84,6.39h0Z"/><path class="d" d="M27.09,36.56v36c0-.85,4.72-5,5.45-5.87,1.13-1.35,4.84-4.48,4.84-6.39V24.3c0,.85-4.72,5-5.45,5.87-1.13,1.35-4.84,4.48-4.84,6.39h0Z"/><path class="d" d="M28.38,24.3c-3.71-.07-7.65,1.02-10.81,2.94-3.58,2.18-6.31,5.72-8.97,8.88-2.84,3.39-6.1,6.91-7.52,11.18-4.05,12.16,3.74,25.51,17.02,25.25,1.46-.03,4.57-4.82,5.45-5.87,.63-.76,4.11-6.37,4.84-6.39-8.56,.17-16-5.61-17.6-14.06-.67-3.55-.64-7.43,.5-10.88,.21-.64,1.13-1.95,1.11-2.6l-6.56,7.82,.64-.5c1.18-.62,2.21-1.39,3.45-1.91,2.53-1.05,5.41-1.66,8.16-1.61,1.39,.03,4.61-4.87,5.45-5.87,.6-.71,4.19-6.4,4.84-6.39h0Z"/><path class="d" d="M5.23,3.43C5.16,1.43,6.57-.18,8.13,.02c.39,.05,2.8,.4,5.95,1.57,3.14,1.15,6.97,3.28,10.08,6.1,3.12,2.81,5.55,6.15,6.79,8.88l.48,.96,.33,.91c.2,.57,.36,1.08,.47,1.5,.22,.85,.24,1.37,.01,1.48s-.67-.18-1.28-.78c-.31-.3-.65-.67-1.03-1.09l-.59-.69-.71-.71c-1.84-2.08-4.56-4.51-7.56-6.41-3.01-1.92-6.33-3.2-8.97-3.82-2.64-.63-4.53-.72-4.81-.75-1.16-.15-1.97-1.76-2.05-3.74Z"/></g></g></svg>