<?xml version="1.0" encoding="UTF-8"?><svg id="Layer_2" xmlns="http://www.w3.org/2000/svg" xmlns:xlink="http://www.w3.org/1999/xlink" viewBox="0 0 72.72 62.640015"><defs><style>.cls-1{stroke:#000;}.cls-1,.cls-2,.cls-3,.cls-4{fill:none;}.cls-1,.cls-5,.cls-3,.cls-6{stroke-width:.5px;}.cls-1,.cls-5,.cls-3,.cls-6,.cls-4{stroke-miterlimit:10;}.cls-7{fill:#47321d;}.cls-8{fill:#407036;}.cls-9{fill:#69bc46;}.cls-10{fill:#775936;}.cls-11{fill:#cecece;}.cls-12{fill:#606060;}.cls-13{fill:#262626;}.cls-14{fill:#ebe0b3;}.cls-15{fill:red;}.cls-5{stroke:#f4f1e9;}.cls-5,.cls-16{fill:#d3a150;}.cls-17{font-family:Bahnschrift-Bold, Bahnschrift;font-size:7px;font-variation-settings:'wght' 700, 'wdth' 100;font-weight:700;}.cls-17,.cls-18,.cls-6,.cls-19{fill:#f4f1e9;}.cls-3,.cls-6{stroke:#d3a150;}.cls-20{fill:#c4c4c4;}.cls-21{fill:#3a3a3a;}.cls-22{fill:#0019ff;}.cls-23{fill:#ffce00;}.cls-24{fill:#5b4827;}.cls-25{fill:#513e27;}.cls-26{fill:#b28a4f;}.cls-27{fill:#26ff00;}.cls-28{fill:#281d13;}.cls-29{fill:#ccb789;}.cls-19{font-family:Algerian, Algerian;font-size:9px;}.cls-30{clip-path:url(#clippath);}.cls-31{fill:#ffa9ff;}.cls-4{stroke:#ccb789;}</style><clipPath id="clippath"><path class="cls-2" d="M61.559982,40.86349c-.000122-13.917542-11.282471-25.19989-25.200012-25.19989s-25.199829,11.282349-25.199951,25.19989v.000122c0,3.464966,2.834961,6.299988,6.299988,6.299988h37.799988c3.465027,0,6.299988-2.835022,6.299988-6.299988v-.000122Z"/></clipPath></defs><g id="_Nien_Lo-Fi_Meli"><path class="cls-11" d="M70.72,0h-2c0,1.104553-.895447,2-2,2-1.104614,0-2-.895447-2-2h-2c0,1.104553-.895447,2-2,2-1.104614,0-2-.895447-2-2h-2c0,1.104553-.895447,2-2,2-1.104614,0-2-.895447-2-2h-2c0,1.104553-.895447,2-2,2-1.104614,0-2-.895447-2-2h-2c0,1.104553-.895447,2-2,2-1.104614,0-2-.895447-2-2h-2c0,1.104553-.895447,2-2,2-1.104614,0-2-.895447-2-2h-2c0,1.104553-.895447,2-2,2-1.104614,0-2-.895447-2-2h-2c0,1.104553-.895447,2-2,2-1.104614,0-2-.895447-2-2h-2c0,1.104553-.895447,2-2,2-1.104614,0-2-.895447-2-2h-2c0,1.104553-.895447,2-2,2-1.104614,0-2-.895447-2-2h-2c0,1.104553-.895447,2-2,2-1.104614,0-2-.895447-2-2h-2c0,.526672-.213379,1.041809-.585815,1.414246-.372375.372375-.887512.585754-1.414185.585754v2.264038c1.104553,0,2,.895386,2,2s-.895447,2-2,2v2.263977c1.104553,0,2,.895447,2,2,0,1.104553-.895447,2-2,2v2.263977c1.104553,0,2,.895447,2,2,0,1.104614-.895447,2-2,2v2.264038c1.104553,0,2,.895386,2,2s-.895447,2-2,2v2.263977c1.104553,0,2,.895447,2,2,0,1.104553-.895447,2-2,2v2.263977c1.104553,0,2,.895447,2,2,0,1.104614-.895447,2-2,2v2.264038c1.104553,0,2,.895447,2,2s-.895447,2-2,2v2.263977c1.104553,0,2,.895447,2,2s-.895447,2-2,2v2.263977c1.104553,0,2,.895447,2,2,0,1.104614-.895447,2-2,2v2.264038c.526672,0,1.041809.213379,1.414185.585754.372437.372437.585815.887573.585815,1.414246h2c0-1.104553.895386-2,2-2,1.104553,0,2,.895447,2,2h2c0-1.104553.895386-2,2-2,1.104553,0,2,.895447,2,2h2c0-1.104553.895386-2,2-2,1.104553,0,2,.895447,2,2h2c0-1.104553.895386-2,2-2,1.104553,0,2,.895447,2,2h2c0-1.104553.895386-2,2-2,1.104553,0,2,.895447,2,2h2c0-1.104553.895386-2,2-2,1.104553,0,2,.895447,2,2h2c0-1.104553.895386-2,2-2,1.104553,0,2,.895447,2,2h2c0-1.104553.895386-2,2-2,1.104553,0,2,.895447,2,2h2c0-1.104553.895386-2,2-2,1.104553,0,2,.895447,2,2h2c0-1.104553.895386-2,2-2,1.104553,0,2,.895447,2,2h2c0-1.104553.895386-2,2-2,1.104553,0,2,.895447,2,2h2c0-.526672.213379-1.041809.585754-1.414246.372437-.372375.887573-.585754,1.414246-.585754v-2.264038c-1.104614,0-2-.895386-2-2s.895386-2,2-2v-2.263977c-1.104614,0-2-.895447-2-2,0-1.104553.895386-2,2-2v-2.263977c-1.104614,0-2-.895447-2-2s.895386-2,2-2v-2.264038c-1.104614,0-2-.895386-2-2,0-1.104553.895386-2,2-2v-2.263977c-1.104614,0-2-.895447-2-2,0-1.104553.895386-2,2-2v-2.263977c-1.104614,0-2-.895447-2-2s.895386-2,2-2v-2.264038c-1.104614,0-2-.895386-2-2,0-1.104553.895386-2,2-2v-2.263977c-1.104614,0-2-.895447-2-2,0-1.104553.895386-2,2-2v-2.264038c-1.104614,0-2-.895386-2-2s.895386-2,2-2v-2.263977c-.526672,0-1.041809-.213379-1.414246-.585754C70.933379,1.041809,70.72.526672,70.72,0Z"/><path class="cls-18" d="M70,0h-2c0,1.104553-.895447,2-2,2-1.104614,0-2-.895447-2-2h-2c0,1.104553-.895447,2-2,2-1.104614,0-2-.895447-2-2h-2c0,1.104553-.895447,2-2,2-1.104614,0-2-.895447-2-2h-2c0,1.104553-.895447,2-2,2-1.104614,0-2-.895447-2-2h-2c0,1.104553-.895447,2-2,2-1.104614,0-2-.895447-2-2h-2c0,1.104553-.895447,2-2,2-1.104614,0-2-.895447-2-2h-2c0,1.104553-.895447,2-2,2-1.104614,0-2-.895447-2-2h-2c0,1.104553-.895447,2-2,2-1.104614,0-2-.895447-2-2h-2c0,1.104553-.895447,2-2,2-1.104614,0-2-.895447-2-2h-2c0,1.104553-.895447,2-2,2-1.104614,0-2-.895447-2-2h-2c0,1.104553-.895447,2-2,2-1.104614,0-2-.895447-2-2h-2c0,.526672-.213379,1.041809-.585815,1.414246C1.041809,1.786621.526672,2,0,2v2.264038c1.104553,0,2,.895386,2,2,0,1.104553-.895447,2-2,2v2.263977c1.104553,0,2,.895447,2,2,0,1.104553-.895447,2-2,2v2.263977c1.104553,0,2,.895447,2,2,0,1.104614-.895447,2-2,2v2.264038c1.104553,0,2,.895386,2,2,0,1.104553-.895447,2-2,2v2.263977c1.104553,0,2,.895447,2,2,0,1.104553-.895447,2-2,2v2.263977c1.104553,0,2,.895447,2,2,0,1.104614-.895447,2-2,2v2.264038c1.104553,0,2,.895447,2,2S1.104553,45.848022,0,45.848022v2.263977c1.104553,0,2,.895447,2,2,0,1.104553-.895447,2-2,2v2.263977c1.104553,0,2,.895447,2,2,0,1.104614-.895447,2-2,2v2.264038c.526672,0,1.041809.213379,1.414185.585754.372437.372437.585815.887573.585815,1.414246h2c0-1.104553.895386-2,2-2,1.104553,0,2,.895447,2,2h2c0-1.104553.895386-2,2-2,1.104553,0,2,.895447,2,2h2c0-1.104553.895386-2,2-2,1.104553,0,2,.895447,2,2h2c0-1.104553.895386-2,2-2,1.104553,0,2,.895447,2,2h2c0-1.104553.895386-2,2-2,1.104553,0,2,.895447,2,2h2c0-1.104553.895386-2,2-2,1.104553,0,2,.895447,2,2h2c0-1.104553.895386-2,2-2,1.104553,0,2,.895447,2,2h2c0-1.104553.895386-2,2-2,1.104553,0,2,.895447,2,2h2c0-1.104553.895386-2,2-2,1.104553,0,2,.895447,2,2h2c0-1.104553.895386-2,2-2,1.104553,0,2,.895447,2,2h2c0-1.104553.895386-2,2-2,1.104553,0,2,.895447,2,2h2c0-.526672.213379-1.041809.585754-1.414246.372437-.372375.887573-.585754,1.414246-.585754v-2.264038c-1.104614,0-2-.895386-2-2,0-1.104553.895386-2,2-2v-2.263977c-1.104614,0-2-.895447-2-2,0-1.104553.895386-2,2-2v-2.263977c-1.104614,0-2-.895447-2-2s.895386-2,2-2v-2.264038c-1.104614,0-2-.895386-2-2,0-1.104553.895386-2,2-2v-2.263977c-1.104614,0-2-.895447-2-2,0-1.104553.895386-2,2-2v-2.263977c-1.104614,0-2-.895447-2-2,0-1.104614.895386-2,2-2v-2.264038c-1.104614,0-2-.895386-2-2,0-1.104553.895386-2,2-2v-2.263977c-1.104614,0-2-.895447-2-2,0-1.104553.895386-2,2-2v-2.264038c-1.104614,0-2-.895386-2-2,0-1.104553.895386-2,2-2v-2.263977c-.526672,0-1.041809-.213379-1.414246-.585754C70.213379,1.041809,70,.526672,70,0Z"/><rect id="Inner" class="cls-4" x="11.303993" y="2.520007" width="50.112" height="57.6" transform="translate(5.039985 67.68) rotate(-90)"/><rect class="cls-29" x="7.559998" y="6.031824" width="57.599976" height=".179993"/><rect class="cls-29" x="7.559998" y="6.391809" width="57.599976" height=".179993"/><rect class="cls-29" x="7.559998" y="6.751794" width="57.599976" height=".179993"/><rect class="cls-29" x="7.559998" y="7.108179" width="57.599976" height=".180054"/><rect class="cls-29" x="7.559998" y="7.468225" width="57.599976" height=".179993"/><rect class="cls-29" x="7.559998" y="7.831812" width="57.599976" height=".179993"/><rect class="cls-29" x="7.559998" y="8.191797" width="57.599976" height=".179993"/><rect class="cls-29" x="7.559998" y="8.551782" width="57.599976" height=".180054"/><rect class="cls-29" x="7.559998" y="8.908228" width="57.599976" height=".179993"/><rect class="cls-29" x="7.559998" y="9.268213" width="57.599976" height=".179993"/><rect class="cls-29" x="7.559998" y="9.631799" width="57.599976" height=".179993"/><rect class="cls-29" x="7.559998" y="9.991785" width="57.599976" height=".179993"/><rect class="cls-29" x="7.559998" y="10.351831" width="57.599976" height=".179993"/><rect class="cls-29" x="7.559998" y="10.708215" width="57.599976" height=".179993"/><rect class="cls-29" x="7.559998" y="11.068201" width="57.599976" height=".179993"/><rect class="cls-29" x="7.559998" y="11.431787" width="57.599976" height=".179993"/><rect class="cls-29" x="7.559998" y="11.791833" width="57.599976" height=".179993"/><rect class="cls-29" x="7.559998" y="12.151819" width="57.599976" height=".179993"/><rect class="cls-29" x="7.559998" y="12.508203" width="57.599976" height=".179993"/><rect class="cls-29" x="7.559998" y="12.868188" width="57.599976" height=".179993"/><rect class="cls-29" x="7.559998" y="13.231836" width="57.599976" height=".179993"/><rect class="cls-29" x="7.559998" y="13.591821" width="57.599976" height=".179993"/><rect class="cls-29" x="7.559998" y="13.951807" width="57.599976" height=".179993"/><rect class="cls-29" x="7.559998" y="14.308191" width="57.599976" height=".179993"/><rect class="cls-29" x="7.559998" y="14.668176" width="57.599976" height=".180054"/><rect class="cls-29" x="7.559998" y="15.031824" width="57.599976" height=".179993"/><rect class="cls-29" x="7.559998" y="15.391809" width="57.599976" height=".179993"/><rect class="cls-29" x="7.559998" y="15.751794" width="57.599976" height=".179993"/><rect class="cls-29" x="7.559998" y="16.108179" width="57.599976" height=".180054"/><rect class="cls-29" x="7.559998" y="16.468225" width="57.599976" height=".179993"/><rect class="cls-29" x="7.559998" y="16.831812" width="57.599976" height=".179993"/><rect class="cls-29" x="7.559998" y="17.191797" width="57.599976" height=".179993"/><rect class="cls-29" x="7.559998" y="17.551782" width="57.599976" height=".180054"/><rect class="cls-29" x="7.559998" y="17.908228" width="57.599976" height=".179993"/><rect class="cls-29" x="7.559998" y="18.268213" width="57.599976" height=".179993"/><rect class="cls-29" x="7.559998" y="18.631799" width="57.599976" height=".179993"/><rect class="cls-29" x="7.559998" y="18.991785" width="57.599976" height=".179993"/><rect class="cls-29" x="7.559998" y="19.351831" width="57.599976" height=".179993"/><rect class="cls-29" x="7.559998" y="19.708215" width="57.599976" height=".179993"/><rect class="cls-29" x="7.559998" y="20.068201" width="57.599976" height=".179993"/><rect class="cls-29" x="7.559998" y="20.431787" width="57.599976" height=".179993"/><rect class="cls-29" x="7.559998" y="20.791833" width="57.599976" height=".179993"/><rect class="cls-29" x="7.559998" y="21.151819" width="57.599976" height=".179993"/><rect class="cls-29" x="7.559998" y="21.508203" width="57.599976" height=".179993"/><rect class="cls-29" x="7.559998" y="21.868188" width="57.599976" height=".179993"/><rect class="cls-29" x="7.559998" y="22.231836" width="57.599976" height=".179993"/><rect class="cls-29" x="7.559998" y="22.591821" width="57.599976" height=".179993"/><rect class="cls-29" x="7.559998" y="22.951807" width="57.599976" height=".179993"/><rect class="cls-29" x="7.559998" y="23.308191" width="57.599976" height=".179993"/><rect class="cls-29" x="7.559998" y="23.668176" width="57.599976" height=".180054"/><rect class="cls-29" x="7.559998" y="24.031824" width="57.599976" height=".179993"/><rect class="cls-29" x="7.559998" y="24.391809" width="57.599976" height=".179993"/><rect class="cls-29" x="7.559998" y="24.751794" width="57.599976" height=".179993"/><rect class="cls-29" x="7.559998" y="25.108179" width="57.599976" height=".180054"/><rect class="cls-29" x="7.559998" y="25.468225" width="57.599976" height=".179993"/><rect class="cls-29" x="7.559998" y="25.831812" width="57.599976" height=".179993"/><rect class="cls-29" x="7.559998" y="26.191797" width="57.599976" height=".179993"/><rect class="cls-29" x="7.559998" y="26.551782" width="57.599976" height=".180054"/><rect class="cls-29" x="7.559998" y="26.908228" width="57.599976" height=".179993"/><rect class="cls-29" x="7.559998" y="27.268213" width="57.599976" height=".179993"/><rect class="cls-29" x="7.559998" y="27.631799" width="57.599976" height=".179993"/><rect class="cls-29" x="7.559998" y="27.991785" width="57.599976" height=".179993"/><rect class="cls-29" x="7.559998" y="28.351831" width="57.599976" height=".179993"/><rect class="cls-29" x="7.559998" y="28.708215" width="57.599976" height=".179993"/><rect class="cls-29" x="7.559998" y="29.068201" width="57.599976" height=".179993"/><rect class="cls-29" x="7.559998" y="29.431787" width="57.599976" height=".179993"/><rect class="cls-29" x="7.559998" y="29.791833" width="57.599976" height=".179993"/><rect class="cls-29" x="7.559998" y="30.151819" width="57.599976" height=".179993"/><rect class="cls-29" x="7.559998" y="30.508203" width="57.599976" height=".179993"/><rect class="cls-29" x="7.559998" y="30.868188" width="57.599976" height=".179993"/><rect class="cls-29" x="7.559998" y="31.231836" width="57.599976" height=".179993"/><rect class="cls-29" x="7.559998" y="31.591821" width="57.599976" height=".179993"/><rect class="cls-29" x="7.559998" y="31.951807" width="57.599976" height=".179993"/><rect class="cls-29" x="7.559998" y="32.308191" width="57.599976" height=".179993"/><rect class="cls-29" x="7.559998" y="32.668176" width="57.599976" height=".180054"/><rect class="cls-29" x="7.559998" y="33.031824" width="57.599976" height=".179993"/><rect class="cls-29" x="7.559998" y="33.391809" width="57.599976" height=".179993"/><rect class="cls-29" x="7.559998" y="33.751794" width="57.599976" height=".179993"/><rect class="cls-29" x="7.559998" y="34.108179" width="57.599976" height=".180054"/><rect class="cls-29" x="7.559998" y="34.468225" width="57.599976" height=".179993"/><rect class="cls-29" x="7.559998" y="34.831812" width="57.599976" height=".179993"/><rect class="cls-29" x="7.559998" y="35.191797" width="57.599976" height=".179993"/><rect class="cls-29" x="7.559998" y="35.551782" width="57.599976" height=".180054"/><rect class="cls-29" x="7.559998" y="35.908228" width="57.599976" height=".179993"/><rect class="cls-29" x="7.559998" y="36.268213" width="57.599976" height=".179993"/><rect class="cls-29" x="7.559998" y="36.631799" width="57.599976" height=".179993"/><rect class="cls-29" x="7.559998" y="36.991785" width="57.599976" height=".179993"/><rect class="cls-29" x="7.559998" y="37.351831" width="57.599976" height=".179993"/><rect class="cls-29" x="7.559998" y="37.708215" width="57.599976" height=".179993"/><rect class="cls-29" x="7.559998" y="38.068201" width="57.599976" height=".179993"/><rect class="cls-29" x="7.559998" y="38.431787" width="57.599976" height=".179993"/><rect class="cls-29" x="7.559998" y="38.791833" width="57.599976" height=".179993"/><rect class="cls-29" x="7.559998" y="39.151819" width="57.599976" height=".179993"/><rect class="cls-29" x="7.559998" y="39.508203" width="57.599976" height=".179993"/><rect class="cls-29" x="7.559998" y="39.868188" width="57.599976" height=".179993"/><rect class="cls-29" x="7.559998" y="40.231836" width="57.599976" height=".179993"/><rect class="cls-29" x="7.559998" y="40.591821" width="57.599976" height=".179993"/><rect class="cls-29" x="7.559998" y="40.951807" width="57.599976" height=".179993"/><rect class="cls-29" x="7.559998" y="41.308191" width="57.599976" height=".179993"/><rect class="cls-29" x="7.559998" y="41.668176" width="57.599976" height=".180054"/><rect class="cls-29" x="7.559998" y="42.031824" width="57.599976" height=".179993"/><rect class="cls-29" x="7.559998" y="42.391809" width="57.599976" height=".179993"/><rect class="cls-29" x="7.559998" y="42.751794" width="57.599976" height=".179993"/><rect class="cls-29" x="7.559998" y="43.108179" width="57.599976" height=".180054"/><rect class="cls-29" x="7.559998" y="43.468225" width="57.599976" height=".179993"/><rect class="cls-29" x="7.559998" y="43.831812" width="57.599976" height=".179993"/><rect class="cls-29" x="7.559998" y="44.191797" width="57.599976" height=".179993"/><rect class="cls-29" x="7.559998" y="44.551782" width="57.599976" height=".180054"/><rect class="cls-29" x="7.559998" y="44.908228" width="57.599976" height=".179993"/><rect class="cls-29" x="7.559998" y="45.268213" width="57.599976" height=".179993"/><rect class="cls-29" x="7.559998" y="45.631799" width="57.599976" height=".179993"/><rect class="cls-29" x="7.559998" y="45.991785" width="57.599976" height=".179993"/><rect class="cls-29" x="7.559998" y="46.351831" width="57.599976" height=".179993"/><rect class="cls-29" x="7.559998" y="46.708215" width="57.599976" height=".179993"/><rect class="cls-29" x="7.559998" y="47.068201" width="57.599976" height=".179993"/><rect class="cls-29" x="7.559998" y="47.431787" width="57.599976" height=".179993"/><rect class="cls-29" x="7.559998" y="47.791833" width="57.599976" height=".179993"/><rect class="cls-29" x="7.559998" y="48.151819" width="57.599976" height=".179993"/><rect class="cls-29" x="7.559998" y="48.508203" width="57.599976" height=".179993"/><rect class="cls-29" x="7.559998" y="48.868188" width="57.599976" height=".179993"/><rect class="cls-29" x="7.559998" y="49.231836" width="57.599976" height=".179993"/><rect class="cls-29" x="7.559998" y="49.591821" width="57.599976" height=".179993"/><rect class="cls-29" x="7.559998" y="49.951807" width="57.599976" height=".179993"/><rect class="cls-29" x="7.559998" y="50.308191" width="57.599976" height=".179993"/><rect class="cls-29" x="7.559998" y="50.668176" width="57.599976" height=".180054"/><rect class="cls-29" x="7.559998" y="51.031824" width="57.599976" height=".179993"/><rect class="cls-29" x="7.559998" y="51.391809" width="57.599976" height=".179993"/><rect class="cls-29" x="7.559998" y="51.751794" width="57.599976" height=".179993"/><rect class="cls-29" x="7.559998" y="52.108179" width="57.599976" height=".180054"/><rect class="cls-29" x="7.559998" y="52.468225" width="57.599976" height=".179993"/><rect class="cls-29" x="7.559998" y="52.831812" width="57.599976" height=".179993"/><rect class="cls-29" x="7.559998" y="53.191797" width="57.599976" height=".179993"/><rect class="cls-29" x="7.559998" y="53.551782" width="57.599976" height=".180054"/><rect class="cls-29" x="7.559998" y="53.908228" width="57.599976" height=".179993"/><rect class="cls-29" x="7.559998" y="54.268213" width="57.599976" height=".179993"/><rect class="cls-29" x="7.559998" y="54.631799" width="57.599976" height=".179993"/><rect class="cls-29" x="7.559998" y="54.991785" width="57.599976" height=".179993"/><rect class="cls-29" x="7.559998" y="55.351831" width="57.599976" height=".179993"/><rect class="cls-29" x="7.559998" y="55.708215" width="57.599976" height=".179993"/><rect class="cls-29" x="7.559998" y="56.068201" width="57.599976" height=".179993"/><path id="Main" class="cls-5" d="M63.205717,11.323212c.478937.041159.899416.462684.939167.941502.039668.477823-.314846.832336-.792669.792667l-6.936679-.585999c-.47881-.03966-.833523.31645-.792273.795395.041153.477821.460954.897621.938775.938773l5.202509.439498c.478876.040453.834287-.314957.793833-.793833l-.292998-3.468338c-.040455-.478878-.461457-.899881-.940335-.940336h0s-3.468338-.292998-3.468338-.292998c-.478876-.040454-.834287.314957-.793833.793833l.439498,5.202509c.041249.478944.46284.899357.94165.939018.477687.039568.832085-.314829.792518-.792516l-.585999-6.936679c-.039752-.478818.316278-.833612.795215-.792454.477942.041072.89788.46101.938954.938952l.219752,2.601254,2.601254.219752Z"/><path id="Main-2" class="cls-5" d="M63.205717,11.323212c.478937.041159.899416.462684.939167.941502.039668.477823-.314846.832336-.792669.792667l-6.936679-.585999c-.47881-.03966-.833523.31645-.792273.795395.041153.477821.460954.897621.938775.938773l5.202509.439498c.478876.040453.834287-.314957.793833-.793833l-.292998-3.468338c-.040455-.478878-.461457-.899881-.940335-.940336h0s-3.468338-.292998-3.468338-.292998c-.478876-.040454-.834287.314957-.793833.793833l.439498,5.202509c.041249.478944.46284.899357.94165.939018.477687.039568.832085-.314829.792518-.792516l-.585999-6.936679c-.039752-.478818.316278-.833612.795215-.792454.477942.041072.89788.46101.938954.938952l.219752,2.601254,2.601254.219752Z"/><path class="cls-5" d="M62.534828,11.266535l-.392398-.033149M60.654162,9.385869l-.392398-.033149M59.21299,12.707707l-.392398-.033149M57.625318,14.295379l-.392398-.033149M62.468561,12.787934l.033149.392398M58.707216,9.026589l.033149.392398M59.146716,14.2291l.033149.392398M57.26605,12.348434l.033149.392398"/><path class="cls-5" d="M62.559353,11.268607l-.441448-.037293M60.678687,9.387941l-.441448-.037293M59.237515,12.709779l-.441448-.037293M57.649843,14.297451l-.441448-.037293M62.466489,12.763409l.037293.441448M58.705144,9.002064l.037293.441448M59.144644,14.204575l.037293.441448M57.263978,12.323909l.037293.441448"/><path id="Main-3" class="cls-5" d="M12.369249,8.500647c.041159-.478937.462684-.899416.941502-.939167.477823-.039668.832336.314846.792667.792669l-.585999,6.936679c-.03966.47881.31645.833523.795395.792273.477821-.041153.897621-.460954.938773-.938775l.439498-5.202509c.040453-.478876-.314957-.834287-.793833-.793833l-3.468338.292998c-.478878.040455-.899881.461457-.940336.940335h0s-.292998,3.468339-.292998,3.468339c-.040454.478876.314957.834287.793833.793833l5.202509-.439498c.478944-.041249.899357-.46284.939018-.94165.039568-.477687-.314829-.832085-.792516-.792518l-6.936679.585999c-.478818.039752-.833612-.316278-.792454-.795215.041072-.477942.46101-.89788.938952-.938954l2.601254-.219752.219752-2.601254Z"/><path id="Main-4" class="cls-5" d="M12.369249,8.500647c.041159-.478937.462684-.899416.941502-.939167.477823-.039668.832336.314846.792667.792669l-.585999,6.936679c-.03966.47881.31645.833523.795395.792273.477821-.041153.897621-.460954.938773-.938775l.439498-5.202509c.040453-.478876-.314957-.834287-.793833-.793833l-3.468338.292998c-.478878.040455-.899881.461457-.940336.940335h0s-.292998,3.468339-.292998,3.468339c-.040454.478876.314957.834287.793833.793833l5.202509-.439498c.478944-.041249.899357-.46284.939018-.94165.039568-.477687-.314829-.832085-.792516-.792518l-6.936679.585999c-.478818.039752-.833612-.316278-.792454-.795215.041072-.477942.46101-.89788.938952-.938954l2.601254-.219752.219752-2.601254Z"/><path class="cls-5" d="M12.312571,9.171536l-.033149.392398M10.431905,11.052202l-.033149.392398M13.753744,12.493374l-.033149.392398M15.341415,14.081046l-.033149.392398M13.83397,9.237803l.392398-.033149M10.072625,12.999148l.392398-.033149M15.275136,12.559648l.392398-.033149M13.39447,14.440314l.392398-.033149"/><path class="cls-5" d="M12.314643,9.147011l-.037293.441448M10.433977,11.027677l-.037293.441448M13.755815,12.468849l-.037293.441448M15.343487,14.056521l-.037293.441448M13.809445,9.239875l.441448-.037293M10.0481,13.00122l.441448-.037293M15.250611,12.561719l.441448-.037293M13.369945,14.442385l.441448-.037293"/><path class="cls-18" d="M9.979522,27.50874c.127426-.254227.192307-.380066.324371-.629303,1.633423-.144073,2.438934-.15567,4.01207-.072723-.219498.349899-.326523.528015-.534836.89061-1.056625-.047318-1.592407-.047775-2.674728.001602.582138.921005.888306,1.36676,1.527664,2.224838-.180237.392258-.267303.591553-.435028.99649-.954376-1.289902-1.400681-1.975128-2.219513-3.411514ZM11.523834,29.526349c.485291-1.066299.750229-1.577164,1.318665-2.554382.214859.127441.322281.191147.53714.318588-.555481.954941-.814377,1.454163-1.288605,2.49614-.226883-.104141-.340317-.156204-.5672-.260345Z"/><path class="cls-18" d="M11.80162,24.354107c.237442-.359283.358795-.535828.606537-.882751,1.113495.810959,1.670227,1.2164,2.783752,2.027359-.218994.306671-.326263.462723-.536163.780334-1.141678-.769989-1.712494-1.154953-2.854126-1.924942ZM14.379241,25.570507c.681396-.99585,1.045471-1.466705,1.81221-2.354248.188095.165009.282135.247498.470245.412506-.748901.866898-1.104507,1.326797-1.770035,2.299469-.204971-.143097-.307449-.21463-.512421-.357727Z"/><path class="cls-18" d="M14.574111,20.788708c.279007-.306274.420746-.456299.708496-.750214.980103.970261,1.470123,1.455338,2.450272,2.425613-.254379.259811-.379669.392441-.626312.663177-1.013016-.935455-1.519485-1.403137-2.532455-2.338577ZM14.827697,20.513943c.901352-.963943,1.375427-1.414352,2.360611-2.252121.162079.191345.243118.287033.405197.478378-.964417.820084-1.428497,1.261002-2.310837,2.20462-.181992-.172348-.272995-.25853-.454971-.430878ZM15.860488,21.492047c.750305-.802414,1.142395-1.180649,1.954254-1.89122.164658.189102.247009.283661.411682.472763-.793869.694824-1.177277,1.064682-1.910965,1.849335-.181976-.172348-.27298-.25853-.454971-.430878ZM16.876418,22.454159c.815765-.872421,1.244812-1.28006,2.136459-2.038269.161835.191071.242752.286606.404602.477676-.870895.740555-1.289963,1.138718-2.086746,1.990845-.181732-.172104-.272583-.258148-.454315-.430252Z"/><path class="cls-18" d="M21.981323,18.842114c-.267838.053864-.511169.041824-.731857-.039703-.221191-.082306-.410233-.232788-.565842-.456528-.216049-.310623-.324081-.465942-.540131-.776566-.155594-.223724-.228607-.455246-.215073-.697403.014084-.241394.111526-.484421.295044-.724152.183517-.239716.448425-.466339.793198-.672607.283737-.169754.564545-.276993.836502-.322113.272415-.044327.525604-.026154.756317.05275.231308.078583.432388.216705.603882.410812-.350128.179672-.52388.272705-.868393.465164-.087921-.080811-.186295-.137619-.294769-.169128-.108032-.030685-.221634-.036469-.339798-.017349-.118774.019455-.238281.06485-.357651.136261-.156387.093567-.275696.196213-.357559.305069-.08197.110001-.125137.22316-.130005.339737-.004868.116592.028961.23085.102066.344162.205093.317917.307648.476883.512741.7948.073105.113327.162262.192001.266724.238022.104446.046021.220428.058136.347.037933.126358-.020172.262283-.073273.406738-.159698.112473-.067291.202759-.145096.272293-.23381.070084-.08902.115982-.185883.139374-.292114.0233-.105103.020599-.216537-.007034-.33316.33078-.184799.497604-.274124.833786-.44664.060242.251205.063629.491028.01297.718597-.05072.227859-.153503.438034-.308228.630737-.155289.193008-.357346.36232-.607544.511993-.303986.18187-.586929.301056-.854752.354935Z"/><path class="cls-18" d="M25.465072,16.949734c-.27211.01181-.51001-.037766-.714523-.152664-.204895-.115738-.368423-.293457-.487366-.535339-.388367-.789734-.582535-1.184586-.970901-1.974319.354782-.171661.533432-.254379.893036-.413666.36467.80809.546982,1.212128.911636,2.020203.081039.179581.211563.289139.389404.330597.178207.042297.386932.011703.631271-.087509.246109-.09993.417786-.22374.515472-.378036.097427-.153214.112946-.322052.043228-.506226-.313721-.828766-.470566-1.243134-.784271-2.07193.367676-.136047.552521-.200989.923981-.324677.283981.832138.425949,1.248199.709915,2.080338.08699.254868.096634.495117.032578.720108-.063751.223923-.197968.424652-.400223.605515-.202271.180862-.46666.334747-.7948.467987-.328156.13324-.625748.20755-.898438.21962Z"/><path class="cls-18" d="M27.769836,12.556241c.374969-.111038.563263-.163467.941284-.262146.356903,1.329681.535309,1.994461.892273,3.324158-.334152.087219-.50061.13356-.832062.23172-.40065-1.31752-.600906-1.976212-1.001495-3.293732ZM28.109207,12.457913c1.201263-.340393,1.810776-.479034,3.037842-.693237.044327.246155.066498.369247.110809.615402-1.201187.209671-1.797836.345398-2.97377.678604-.069946-.240295-.104919-.360458-.174881-.600769ZM28.506179,13.821682c.999954-.283356,1.506302-.402054,2.525574-.593567.047577.24556.071365.368347.118942.613907-.996689.187271-1.491837.30336-2.469635.580429-.069946-.240311-.104919-.360474-.174881-.600769ZM28.896682,15.163159c1.087189-.30806,1.638824-.433533,2.749359-.627396.044266.245804.066406.368683.110672.614487-1.084702.189346-1.623489.311905-2.685379.612808-.06987-.23996-.104797-.35994-.174652-.599899Z"/><path class="cls-18" d="M33.180587,14.824963c-.25943-.069916-.468155-.18837-.626572-.359039-.15979-.171417-.260864-.389694-.301956-.658356-.057037-.373016-.085556-.559525-.142578-.932541-.041092-.268661-.007019-.507477.109085-.717712.114868-.209122.304443-.38298.569366-.516418.263535-.13327.594803-.219528.987045-.25325.324097-.027863.618576-.001862.878433.076523.258926.07811.475754.205231.646744.376205s.289566.382187.357727.630905c-.388428.009811-.582611.017929-.970535.040543-.042938-.110825-.105438-.204666-.187775-.280228-.082275-.074646-.180191-.12941-.29213-.163956-.113297-.034454-.239029-.04599-.375092-.034286-.178223.01532-.326828.054794-.446396.116318-.119476.062439-.206024.144669-.259644.246735-.054962.102219-.073486.219223-.057693.352768.044281.37468.066437.562027.110718.936707.015793.13356.059921.243286.132812.330368.071625.087234.167923.14949.288834.18663.121017.038086.26268.049591.427322.035431.128189-.011017.242035-.041321.341003-.090424.100235-.049194.183167-.116074.248978-.201126.065887-.084122.112167-.185318.13736-.301971.372482-.021713.558914-.029495.93187-.03891-.055191.251831-.15683.468872-.299667.65126-.142776.182312-.325089.326736-.544418.432205-.220551.105545-.472046.169189-.757812.193756-.345856.029724-.646835.011932-.905029-.058136Z"/><path class="cls-18" d="M37.268798,14.762402c-.356689-.011414-.535156-.014191-.892014-.013855-.001343-1.375366-.001984-2.062958-.003265-3.438309.403687-.000366.605576.002777,1.009079.015686-.045547,1.374619-.068314,2.061859-.1138,3.436478Z"/><path class="cls-18" d="M43.594879,12.168759c.500366.121536.74942.187668,1.24469.330719-.391617,1.320145-.587402,1.980148-.978973,3.300323-.301849-.087189-.453369-.12851-.757416-.206665.273148-1.033432.409729-1.55011.682907-2.583511-.002274.06189-.003448.092834-.005859.154709-.591507.730331-.874222,1.102371-1.41272,1.857986-.301804-.067444-.453171-.098999-.756592-.157791-.184967-.887146-.291656-1.33075-.533447-2.215714.026825-.076126.040253-.114182.067261-.190262-.175461,1.053787-.263199,1.580673-.438629,2.634491-.309341-.049911-.464355-.072601-.774902-.11348.185272-1.36322.277924-2.044754.463242-3.407974.508972.066986.762894.10585,1.268875.19429.224243.980621.320663,1.47168.482208,2.452835.550797-.832596.840805-1.243073,1.449356-2.049957Z"/><path class="cls-18" d="M45.611785,16.372555c-.337234-.12355-.506821-.182388-.84761-.294174.439011-1.305542.658508-1.958237,1.097565-3.263763.385513.126465.577362.193024.958862.332779-.483566,1.290085-.725311,1.935059-1.208817,3.225159Z"/><path class="cls-18" d="M47.424392,13.376095c1.421844.556412,2.118744.881439,3.466873,1.625137-.122238.218857-.18335.328293-.305588.547134-1.319687-.728012-2.001907-1.046188-3.393753-1.590851.092987-.232559.139481-.348846.232468-.581421ZM48.616607,14.182339c.355331.159241.53186.241913.88237.413376-.56337,1.133362-.845047,1.700027-1.408371,2.83342-.31282-.15303-.470367-.226807-.787491-.368927.525391-1.151169.788071-1.726715,1.313492-2.877869Z"/><path class="cls-18" d="M52.404891,15.897427c.213562.135422.319763.204407.530777.344833-.093384,1.59494-.186401,2.380554-.45932,3.913559-.303207-.234467-.45668-.348526-.767059-.570282.183151-1.026962.256073-1.548126.363113-2.601883-.924606.522629-1.372772.800079-2.238388,1.383316-.325241-.191544-.48941-.284149-.820465-.463028,1.286362-.872406,1.966476-1.276611,3.391342-2.006516ZM50.356124,17.307309c.883224.515991,1.314926.796265,2.152527,1.401398-.146896.202789-.220337.304184-.367218.506973-.818512-.591339-1.240372-.865219-2.103455-1.369446.127258-.215576.190887-.323364.318146-.538925Z"/><path class="cls-18" d="M55.104949,17.838101c.313171.253983.467926.384064.773529.650406-.903931,1.042191-1.355881,1.563248-2.25975,2.605469-.270142-.235443-.406937-.350433-.683777-.574951.867981-1.072403,1.301971-1.608551,2.169998-2.680923ZM55.386398,18.069348c.992355.82608,1.470276,1.270645,2.379883,2.222916-.180222.174225-.27034.261337-.450562.435562-.890427-.93219-1.358276-1.367386-2.329712-2.176041.160156-.192963.240234-.289459.400391-.482437ZM54.477523,19.164486c.826263.68782,1.226013,1.054672,1.992569,1.834381-.177795.176712-.266708.265091-.444504.441803-.749573-.762436-1.140472-1.12117-1.948441-1.793762.160141-.192963.240219-.289459.400375-.482422ZM53.583511,20.241726c.898132.74762,1.330673,1.149979,2.1539,2.011826-.179962.173965-.269928.260941-.44989.434906-.804077-.841782-1.226547-1.234772-2.103775-1.965012.159912-.192688.239853-.289032.399765-.48172Z"/><path class="cls-18" d="M60.586532,23.742291c.322479.462509.47934.699112.783646,1.183105-1.158783.743469-1.738174,1.115173-2.896896,1.858673-.185455-.294983-.280151-.440216-.473312-.726166.880356-.606857,1.320572-.910278,2.200974-1.51712-.041458.046768-.062225.070114-.10379.11676-.940918.134125-1.405411.217514-2.320236.414734-.198318-.272293-.299271-.406296-.504486-.669937.420029-.82283.618683-1.24353.991852-2.101166.070206-.040085.105347-.060104.175674-.100006-.815262.69339-1.2229,1.04007-2.038116,1.73349-.215668-.257721-.325211-.384308-.547577-.63298,1.021225-.926315,1.53186-1.38942,2.553146-2.31572.364441.407562.542831.616714.89122,1.045746-.448441.921249-.68573,1.372406-1.184753,2.253296.974014-.250122,1.469009-.359177,2.472656-.542709Z"/><path class="cls-18" d="M62.025695,26.018536c.21788.381256.324081.574951.530685.968567-1.213821.647781-1.820755.971649-3.0345,1.619461-.182632-.347931-.276505-.519165-.469116-.856186,1.189133-.692749,1.783737-1.039093,2.972931-1.731842ZM62.220535,26.364651c.683548,1.232834.997604,1.880783,1.560532,3.239807-.230972.095673-.346466.143509-.577423.239166-.551056-1.330368-.85849-1.964645-1.527618-3.171478.217804-.122986.326721-.184494.54451-.307495ZM60.984496,27.06268c.569138,1.026489.833435,1.562698,1.315277,2.681076-.229446.099243-.344177.148865-.573624.248108-.471176-1.093613-.72963-1.617935-1.286148-2.621689.217789-.123001.326691-.184509.544495-.307495ZM59.768676,27.749295c.618622,1.115753.902847,1.702164,1.412323,2.932144-.230621.09552-.345917.14328-.576538.238815-.497604-1.201355-.775223-1.774124-1.379471-2.863907.217484-.122833.326202-.184235.543686-.307053Z"/><path class="cls-6" d="M61.578004,40.859897c-.000122-13.917542-11.282471-25.19989-25.200012-25.19989s-25.199829,11.282349-25.199951,25.19989v.000122c0,3.464966,2.834961,6.299988,6.299988,6.299988h37.799988c3.465027,0,6.299988-2.835022,6.299988-6.299988v-.000122Z"/><g class="cls-30"><rect class="cls-10" x="56.255319" y="24.211816" width="5.980296" height="22.676392"/><rect class="cls-7" x="54.43617" y="22.231836" width="1.819149" height="23.939941"/><rect class="cls-13" x="20.606383" y="35.641809" width="30.287234" height="1.234787"/><rect class="cls-13" x="48.946809" y="17.731836" width="1.946809" height="17.909973"/><rect class="cls-13" x="20.06383" y="20.791833" width=".829787" height="16.084762"/><rect class="cls-21" x="50.893617" y="19.441827" width="2.489362" height="19.440002"/><rect class="cls-21" x="20.06383" y="36.876596" width="30.829787" height="2.005234"/><rect class="cls-21" x="17.893617" y="21.868188" width="2.170213" height="17.013641"/><rect class="cls-21" x="9.666" y="40.411814" width="40.525489" height="10.619995"/><path d="M25.393617,31.16383s-.340426-.776596-.095745-1.457447c0,0,1.095745.468085,1.148936.829787,0,0,.993943-.057747,1.085106-.042553,0,0,.43617-.816008,1.074468-.971834,0,0,.170213,1.173961.095745,1.280344,0,0,.297872.989992-.138298,1.59606,0,0,.62766,1.084791,3.957447,1.212451,0,0,2.180851-.234609,3.478723,2.297589,0,0,.085106.276879-.489362.510921,0,0-.329787.243591-1.297872.302647,0,0-1.978723,1.399481-6.074468-.111157,0,0-1.138298-.138298-2.659574-.37234,0,0-.776596-.244681-.882979-.882979,0,0,.606383-1.808511,1.351064-1.819149,0,0,.085106-.478723,0-.531915,0,0-.670213-.56383-.638298-.893617,0,0,.010638-.914894.085106-.946809Z"/><path d="M35.5,36.248936s-.085106.617021-.053191.691489.329787,1.957447,2.648936,2.829787c0,0,.361702.202128,0,.414894s-1.148936-.085106-1.148936-.085106c0,0-2.521277-1.978723-2.617021-3.56383l1.170213-.287234Z"/><path class="cls-28" d="M15.042542,36.641809l.534241,6.219238c0,.342834.960632.620728,2.14563.620728s2.145569-.277893,2.145569-.620728l.536255-6.219238h-5.361694Z"/><ellipse class="cls-7" cx="17.7224" cy="36.64" rx="2.948936" ry=".549583"/><path class="cls-7" d="M20.671326,36.639978h-5.897888v.991821h.001038c0,.303528,1.320251.549561,2.948914.549561s2.948975-.246033,2.948975-.549561l-.001038-.991821Z"/><ellipse class="cls-10" cx="17.723404" cy="36.641809" rx="2.680851" ry=".499621"/><path class="cls-18" d="M24.228723,42.841791s8.202128-.629974,9.303191-.359985c0,0,.734043.186024.606383.449982,0,0,1.244681.55119,1.196809.990021l.175532,2.159973h-8.952128l-2.329787-3.23999Z"/><path d="M26.510638,45.631799s-.670213-1.584976-1.117021-1.531792c0,0-.079787-.901802-.62234-.901802l-.542553-.356415v.446442l1.898936,2.343567.640095.720032-.257116-.720032Z"/><polyline points="26.558511 46.081781 35.510638 46.081781 35.510638 46.441827 26.819149 46.441827 26.28767 45.811792"/><path d="M56.893617,45.493617s-.529959-16.058197,2.990339-15.341813l3.026044,9.896377-1.350018,6.033585-4.666365-.588149Z"/><path class="cls-1" d="M19.510638,15.931787s16.425532,4.43817,32.638298,0"/><polygon class="cls-15" points="25.307139 21.871993 20.446809 21.061965 20.446809 16.201634 25.307139 17.011662 25.307139 21.871993"/><polygon class="cls-20" points="31.004633 22.588362 26.144303 22.093352 26.144303 17.233021 31.004633 17.728032 31.004633 22.588362"/><polygon class="cls-22" points="36.72 22.749442 31.859669 22.636931 31.859669 17.7766 36.72 17.889111 36.72 22.749442"/><polygon class="cls-23" points="42.504633 22.588362 37.644303 22.805697 37.644303 17.945366 42.504633 17.728032 42.504633 22.588362"/><polygon class="cls-9" points="48.057825 21.781996 43.197494 22.427041 43.197494 17.56671 48.057825 16.921666 48.057825 21.781996"/><path class="cls-13" d="M42.319149,33.211816l1.223404-1.170013s.521277-.163719.819149.266388l.148936.179993-1.255319,1.263611s-.925532-.247311-.93617-.539978Z"/><path class="cls-21" d="M47.87766,27.796809s.824468.590426.739362,1.526596h.989362s1.138298.197666,1.117021,1.008407c0,0,.089508.285864-.489362.266388,0,0-1.248745-.063674-2.56383,1.50527-.680693.812091-1.528473,1.993797-1.914894,3.991212,0,0-.050117.803807-.257013,1.347147-.148903.391041-.443287.574425-.556817.567747,0,0-.567589-.032889-.75-.845745-.047735-.212717-.170567-.471285-.175532-.805621,0,0-.071809-.236128-.510638-.359985s-.390957-2.209394-.390957-2.209394l.981383-1.316489s2.952128-2.909459,2.792553-3.702128c0,0,.106383-.38544.989362-.973404Z"/><polygon class="cls-12" points="29.393617 45.448206 29.680851 44.780851 29.904255 44.998224 29.393617 45.448206"/><polygon points="29.904255 44.998224 33.648936 40.048181 33.382979 39.868188 29.680851 44.780851 29.904255 44.998224"/><polygon class="cls-12" points="33.206392 40.102516 33.467553 40.287949 33.648936 40.048181 33.382979 39.868188 33.970463 39.182728 34.126658 39.290864 33.724155 39.868188 33.850313 39.958185 33.309637 40.714643 33.206392 40.633174 33.417772 40.3602 33.165174 40.157212 33.206392 40.102516"/><path class="cls-25" d="M42.579787,34.288232l.023936.402193-.574468.327128s-2.481383-.115221-2.768617-.005749l-.409574-.179993-1.18617-1.26001s.223404-1.440002.414894-1.440002h.462766l.06383.101179s.335106-.202359.462766-.101179.398936.093915.510638.536377l1.898936-.068176.654255.957637s.558511.007024.446809.730596Z"/><path class="cls-25" d="M29.925532,42.481805c1.12766-.626373,1.861702-.573295,1.957447-.562656s1.542553,1.18903,1.542553,1.18903l.882979.587566.595745.797872-.978723,1.787234c.06383-.427364-1.180851-.922642-1.180851-.922642.042553.449982-.148936.539663-.148936.539663-.62766.159574-1.106383-.08608-1.106383-.08608-.085106,0-.191489-.243707-.191489-.243707l-.297872-.209876s-.074468.326897-.159574.27359-.680851-.899963-.680851-.899963l-.117021-.540039s-.06383.089054-.202128.227352-.223404.042553-.223404.042553c.06383-.319149.212766-.539894.212766-.539894.095745-.007979.095745-1.396276.095745-1.396276"/><path class="cls-26" d="M44.87766,37.97766s-.62234-.269444-.638298-1.165868-.765957-.903564-.765957-.903564c.015957-.179993-.574468-2.041873-.606383-2.156433s-.321419.089996-.321419.089996c.207447.969058-.572198,1.080017-.572198,1.080017h-1.875287l-.03143.042807-.034647.047189s.569024.536438.648811.896423-.079787.179993-.079787.179993c0,0-.81383.706073-.734043,1.353607,0,0-.095745.622772-1.691489,2.156372,0,0-.654255.626373-.606383,1.709991s.654255,2.340027.654255,2.340027l1.882979.27359,4.771277-3.149994,1.452128-3.063599-.526596-1.26001s-.558511,1.26001-.638298,1.350006-.287234.179448-.287234.179448Z"/><path class="cls-16" d="M45.555538,36.874079c-.283372-.507336.399249-1.347451.51893-2.51876,0,0,1.914894-4.390756,4.531915-3.75712,0,0,1.835106,1.709991,2.12234,1.709991s2.728723,4.743937,3.510638,7.456703.861702,3.703331.861702,3.703331l-5.297872,2.613556-.473191,1.349991s-1.920426-.275386-2.191702-.273575-12.382979,0-12.382979,0l-.382979-.531601-2.058511.08162s-1.30759-.009523-1.227803-1.19518c0,0,.066322.034325.217603.100732.100214.04399.209148.138386.291364.183229.202476.110437.373499.205423.373499.122337,0-.179993,1.028499-1.461179-.407671-2.721128,0,0,1.104072.695038,2.731731.450012,0,0-.031915-.363242.382979-.359985s.845745.543579.845745.543579c0,0,4.340426-.720032,4.308511-1.080017s.62234-.449667.62234-.449667c0,0,2.916707-3.414894,2.639204-3.606383,0,0,.599531-1.579386.464206-1.821666Z"/><path class="cls-24" d="M37.06383,28.441827s1.680851,1.263527,1.723404,1.529999c0,0,.255319.720032-.212766,1.350006,0,0-.052488.269989.282267.449982,0,0,.185818.179993.377308.179993,0,0,.361702.805822.978723.71637,0,0-.148936.180054,0,.180054s.489362.363586.489362.363586c0,0-.106383.359985,1.276596.179993,0,0,.170213.363586,1.744681-1.26001,0,0,.319149-.183594.574468.176392,0,0,2.523936-1.937508,2.821808-2.837472l-.098404-.312522-5.574468-4.766388-3.340426.179993-1.87234,2.160034.829787,1.709991Z"/><path d="M39.319149,27.811792s-.191489-1.619995-.148936-1.529999.468085,1.166412.468085,1.166412l.212766.543579s.274439.338992.340426.360046c.106814.034081.297872.089996.297872.089996l.531915.05179,5.276596.66458s1.446809.093658,2.148936-2.426361-3.553191-5.490021-3.553191-5.490021c0,0-1.574468-1.353607-3.12766-1.173615,0,0-.425532.183655-.340426.723633s-2.425532.71637-2.425532.71637l-1.170213.089996s-1.659574,1.166351-1.638298,1.889984-.021277,1.116999-.021277,1.116999c0,0-1,1.226568-.957447,1.676611,0,0-.468085,2.786407.468085,2.606415h1.021277l.361702-.179993-.148936-1.350006.425532,1.083618h.191489l-.212766-1.353607.531915,1.263611h.510638c.212766-.092257.297872-.180054.297872-.180054l.148936-.089996s.06383-.067055.191489-.093567c0,0,.155194-.115068.319149-.176422Z"/><ellipse class="cls-18" cx="44.106383" cy="28.204624" rx="2.489362" ry="2.75356"/><path class="cls-18" d="M43.042553,25.831812l.893617-.183594s-.06383-1.076416-.340426-1.076416-.276596-.178851-.914894.179993l.361702,1.080017Z"/><path class="cls-18" d="M42.042553,25.468225s-1.297872-3.78363-3.191489-3.960022c0,0,.170213-.716431,2.191489-.896423,0,0,2.425532,1.26001,3.276596,4.140015,0,0-.744681.536438-2.276596.716431Z"/></g><path class="cls-3" d="M61.559982,40.86349c-.000122-13.917542-11.282471-25.19989-25.200012-25.19989s-25.199829,11.282349-25.199951,25.19989v.000122c0,3.464966,2.834961,6.299988,6.299988,6.299988h37.799988c3.465027,0,6.299988-2.835022,6.299988-6.299988v-.000122Z"/><ellipse class="cls-6" cx="16.956" cy="48.960007" rx="8.1" ry="5.4"/><ellipse class="cls-16" cx="16.956" cy="48.960007" rx="7.29" ry="4.86"/><text class="cls-19" transform="translate(11.587356 51.948287)"><tspan x="0" y="0">20</tspan></text><ellipse class="cls-6" cx="55.62" cy="48.931785" rx="8.1" ry="5.4"/><ellipse class="cls-16" cx="55.62" cy="48.931785" rx="7.29" ry="4.86"/><text class="cls-19" transform="translate(50.219283 52.055419)"><tspan x="0" y="0">25</tspan></text><text class="cls-17" transform="translate(28.402847 53.849766)"><tspan x="0" y="0">NIEN</tspan></text><path class="cls-8" d="M14.553191,33.195745c-.638298-.319149-3.234043,1.978723-3.234043,1.978723,0,0,2.829787-1.218546,3.148936-1.332677s.085106-.539663.085106-.539663"/><path class="cls-27" d="M11.319149,35.174468s2.12766-2.555934,3.255319-2.416265l.787234-.005523-.808511.443064s-.595745-.297872-3.234043,1.978723Z"/><path class="cls-27" d="M15.212766,32.195745c-1.829787-.914894-2.659574.926075-2.659574.926075,0,0,1.382979.691576,2.808511-.723633l-.148936-.202443Z"/><path class="cls-27" d="M11.446809,30.365957s.765957.319149,2.702128.489362c0,0-.236405-.871652-1.171394-1.063486s-1.658393.539978-1.658393.539978"/><path class="cls-8" d="M15.446809,31.681818s-.06383-.869052-.638298-.954158-1.212766.404255-1.212766.404255c0,0,1.047523.013872,1.593331.505348.016031.014436.03163.029283.046757.044555"/><path class="cls-8" d="M16.042553,35.834043c-1.161911-.632216-1.527931-.143097-1.627026.074047-.024298.053243-.032548.090135-.032548.090135,0,0-.570888-.523999.852854-.716431s.806721.552249.806721.552249Z"/><path class="cls-8" d="M18.87234,34.876596s1.765957-1.01556,2.212766-1.124801c0,0-1.404255-.470943-2.212766,1.124801Z"/><path class="cls-8" d="M19.297872,34.046809s3.191489-2.680851,4.085106.829787c0,0-.829787-2.617021-4.085106-.829787Z"/><path class="cls-27" d="M20.093851,28.441827s-.157681-.271024-.115128-.450043c0,0-.406674.34592-.799082.360046l.91421.089996Z"/><path class="cls-8" d="M20.093851,28.441827c-1.799766-.690088-2.136404,1.668811-2.136404,1.668811.446809.12766.638298.957447.638298.957447,0,0,.340426-1.524909.957447-1.773093,0,0,.224589-.196464.319149-.546056s.221511-.307109.221511-.307109Z"/><path class="cls-8" d="M23.659574,29.294992s-1-1.84198-2.319149-.406784c0,0-1.025064.882693-1.246574.903625h-.795979s.425532-1.231583,1.382979-1.350006c0,0,.787234-.154861.797872-.360046,0,0,2.031915-.325839,2.180851,1.213211Z"/><rect class="cls-8" x="18.201692" y="31.016533" width=".226558" height="5.340763" transform="translate(14.107503 -4.425335) rotate(22.232375)"/><path class="cls-27" d="M25.93617,30.855319c-2.893617-3.021277-5.191489.957447-5.191489.957447,0,0,.297872-1.879837,2.446809-2.290983s2.744681,1.333536,2.744681,1.333536Z"/><path class="cls-8" d="M21.340426,34.198206c.382979-.040092.680851-1.917355.680851-1.917355,0,0-2.255319-1.404255-2.531915-1.322666s-.386766,1.173615-.386766,1.173615c0,0,1.705915-.297757,1.854851-.170097,0,0,.787234,1.104036.521277,1.520103l-.138298.7164Z"/><path class="cls-8" d="M21.085106,31.4136s1.510638-.366791,2.957447.888528c0,0-.744681-1.713226-2.957447-.888528Z"/><path class="cls-8" d="M23.12766,33.238298c-1.319149-1.489362-3.06383-.622544-3.06383-.622544,0,0,.212766-.633006,1.414894-.483954s1.648936,1.106499,1.648936,1.106499Z"/><path class="cls-8" d="M15.723404,34.558221c-.574468-.318374-1.975144.089996-1.975144.089996,0,0,.297872-.408112.987572-.366463s.987572.276466.987572.276466Z"/><path class="cls-8" d="M22.382979,35.66383c-.680851-2.12766-3.203337-.742022-3.203337-.742022,0,0,.777805.039894,1.267167-.045212,0,0,1.170213-.291815,1.489362.194518s.446809.592716.446809.592716Z"/><path class="cls-27" d="M16.929169,26.551782s.730406.856728-.333424,2.878005l.577966,1.078416s.769733-3.68549-.244542-3.956421Z"/><rect class="cls-27" x="16.595745" y="29.429787" width=".555722" height="7.358891"/><path class="cls-8" d="M15.914894,29.759777s-.212766-1.643024.446809-1.677996c0,0,.539188.738881.567467,2.426422l-1.014275-.748426Z"/><rect class="cls-8" x="17.865729" y="31.676808" width=".106383" height="5.042795" transform="translate(19.499783 -4.37777) rotate(30)"/><polygon class="cls-8" points="17.247898 36.509608 17.038761 36.520617 15.914894 29.759777 16.926496 30.404202 17.247898 36.509608"/><rect class="cls-8" x="17.464877" y="30.132779" width=".788057" height="6.551696" transform="translate(5.177995 -2.288311) rotate(8.57019)"/><polygon class="cls-8" points="19.187865 36.532314 18.418638 36.430436 19.297872 29.791833 20.093851 29.69172 19.187865 36.532314"/><rect class="cls-27" x="17.261527" y="30.237823" width=".170213" height="6.377155" transform="translate(44.419194 59.604759) rotate(161.465026)"/><rect class="cls-27" x="19.701146" y="30.293228" width=".170213" height="6.377155" transform="translate(20.180747 72.371026) rotate(-150)"/><rect class="cls-27" x="17.763134" y="26.672912" width=".169567" height="10.029039" transform="translate(30.774457 65.680755) rotate(-171.42981)"/><rect class="cls-27" x="18.314472" y="35.712247" width="1.028868" height=".118177" transform="translate(48.052268 63.701808) rotate(161.465026)"/><path class="cls-27" d="M13.748261,29.759777s.890037.627457,1.443229.627457,1.531915,1.294584,1.531915,1.294584c0,0,0-2.188201-1-2.273307,0,0-.93617-.394244-1.404255-.250314s-.570888.60158-.570888.60158Z"/><rect class="cls-27" x="15.356849" y="30.162577" width=".459556" height="6.778152" transform="translate(46.58511 53.744483) rotate(147.998278)"/><rect class="cls-27" x="16.919226" y="31.565795" width=".197782" height="5.620706" transform="translate(52.655434 48.564788) rotate(138.047464)"/><rect class="cls-8" x="16.292496" y="35.562361" width=".226349" height="1.051719" transform="translate(52.732057 51.959556) rotate(138.047464)"/><polygon class="cls-8" points="17.016813 36.633324 17.904236 36.75122 15.623255 34.47024 14.735832 34.352344 17.016813 36.633324"/><path class="cls-27" d="M19.106383,35.641809s1.723404.383723,1.978723,1.128404c0,0-.255319-1.191489-1.170213-1.297872s-.808511.169469-.808511.169469Z"/><rect class="cls-8" x="16.103002" y="31.434394" width=".226558" height="5.340763" transform="translate(-10.766223 7.684179) rotate(-20.172496)"/><rect class="cls-27" x="19.216523" y="26.669095" width=".130213" height="9.884084" transform="translate(35.985772 64.656815) rotate(-175.434327)"/><rect class="cls-8" x="18.956763" y="32.143698" width=".106383" height="4.790841" transform="translate(19.81641 -4.877613) rotate(30)"/><rect class="cls-8" x="16.602992" y="34.729131" width="3.657199" height=".314175" transform="translate(-20.996556 33.405335) rotate(-60)"/><rect class="cls-8" x="18.006423" y="31.354749" width=".226558" height="5.340763" transform="translate(19.440145 -4.501348) rotate(30)"/><rect class="cls-8" x="17.340153" y="31.681962" width=".226558" height="5.340763" transform="translate(-10.775708 8.125994) rotate(-20.172496)"/><polygon class="cls-27" points="17.679243 36.678999 17.831755 36.604882 13.381851 27.448206 13.295623 27.658716 17.679243 36.678999"/><circle class="cls-10" cx="16.595745" cy="36.75122" r=".151507"/><circle class="cls-10" cx="16.747252" cy="36.770213" r=".151507"/><circle class="cls-10" cx="16.975195" cy="36.721796" r=".151507"/><circle class="cls-10" cx="17.126702" cy="36.721796" r=".151507"/><circle class="cls-10" cx="17.346634" cy="36.721796" r=".151507"/><circle class="cls-10" cx="17.623924" cy="36.811792" r=".151507"/><circle class="cls-10" cx="17.858906" cy="36.721796" r=".151507"/><circle class="cls-10" cx="18.119702" cy="36.631799" r=".151507"/><circle class="cls-10" cx="18.27121" cy="36.873303" r=".151507"/><circle class="cls-10" cx="18.418638" cy="36.75122" r=".151507"/><circle class="cls-10" cx="18.314971" cy="36.631799" r=".151507"/><circle class="cls-10" cx="18.431591" cy="36.503772" r=".151507"/><circle class="cls-10" cx="18.805616" cy="36.520617" r=".151507"/><circle class="cls-10" cx="18.974842" cy="36.532314" r=".151507"/><circle class="cls-10" cx="19.179642" cy="36.532314" r=".151507"/><path class="cls-31" d="M18.119702,24.211816s.007639,2.52002.346777,2.52002l.11662.071418.222518-.071418c1.352563-1.259949-.642152-2.610016-.642152-2.610016"/><ellipse class="cls-14" cx="18.583099" cy="26.103616" rx=".208872" ry=".676788"/><path class="cls-31" d="M19.425532,22.860979s-.042553.787234.914894,1.87234c0,0,.356965.767598-.608194,1.973674-.030491.038102-.062302.009234-.095485.048201,0,0-.031114.021603-.077442-.069554-.204677-.402731-.706308-1.690664-.133772-3.824661Z"/><ellipse class="cls-14" cx="19.636746" cy="26.00607" rx=".257235" ry=".676788" transform="translate(-1.430809 1.144943) rotate(-3.222418)"/><path class="cls-31" d="M13.441489,27.541489c-.143617-2.154255-1.228723-2.952128-1.228723-2.952128,0,0-.734043,2.179762,1.117021,3.132434l.111702-.180306Z"/><path class="cls-14" d="M13.257927,26.999964c.159137.338211.203527.6522.099147.701313s-.122359-.260048-.281496-.598259-.399169-.577399-.29479-.626512.318002.185247.477139.523458Z"/></g></svg>