<svg xmlns="http://www.w3.org/2000/svg" viewBox="0 0 214 312.95"><g id="Layer_2" data-name="Layer 2"><g id="Layer_1-2" data-name="Layer 1"><path d="M149.5,18.1l-18-18c-.94-.95-13.17,5.43-14.29,6.54L103,20.86c-1.06,1.06-3.44,2.63-4,4-.79,2.05,0,6,0,8.15v120.4A37.94,37.94,0,0,1,99,159c-.21,1.37-.27,1.13-1.75,2.61l-16,16L95.5,171.1l-18-18c-.63-.63-6.63,2.65-7.42,3-.56.27-7,3.78-7.08,3.75l18,18c1,.94,13.17-5.43,14.29-6.55l14.22-14.22c2.63-2.63,4-3.13,4-6.6V21.1c0-3-.3-2.7,1.75-4.75l16-16L117,6.86l18,18c.63.63,6.63-2.65,7.42-3,.57-.27,7.05-3.78,7.08-3.74Z"/><path d="M113.29,81.31l18-18L117,69.86l13,13c1.3,1.3,4.21,3.23,4.95,4.94.48,1.12,0,3.38,0,4.58v23.42c0,2.29.5,5.23,0,7.47-.2.9-1.52,2.09-2.73,3.29l-15.06,15.06,14.29-6.54-18-18c-.63-.63-6.63,2.65-7.42,3-.56.27-7,3.78-7.08,3.75l18,18c1,.94,13.17-5.43,14.29-6.55L144.62,122c1.29-1.29,3.86-3,4.67-4.67.59-1.23.21-3.36.21-4.76V89.13c0-2.11.67-5.55,0-7.59-.4-1.23-1.72-2.17-2.69-3.13L131.5,63.1c-.94-1-13.17,5.43-14.29,6.54l-18,18c-.55.56.75,0,.87-.06a21.93,21.93,0,0,0,4.41-1.86c2.6-1.16,6.72-2.33,8.8-4.41Z"/><path d="M171,15.86l8.65,8.65,6.13,6.13c.82.82,2.73,2.11,3.2,3.2.75,1.73,0,5.35,0,7.18V76c0,3.47.72,7.84,0,11.25-.22,1-2,2.56-3.35,3.94L174.36,102.5l-21.15,21.14-.21.22,18,18c.95.94,13.17-5.43,14.29-6.55l18-18,.21-.21L173.8,87.39c-2.33-2.32-6-4.53-6.3-7.82-.74-7.49,0-15.43,0-23V36.1c0,.06-6.83,2.74-7.42,3-.89.42-7.08,2.62-7.08,3.75V82.59c0,1.58-.46,4.09.22,5.49,1.11,2.26,4.6,4.59,6.35,6.35l11.78,11.78L183,117.83c1.16,1.17,5.54,4.22,5.9,5.91a11.27,11.27,0,0,1-1.86,2.1L180.91,132l-9.7,9.69,14.29-6.54-11.4-11.4c-1.83-1.83-4.3-3.67-5.79-5.79-.94-1.35-1.05-.23.06-1.68,3.25-4.27,7.94-7.94,11.72-11.72L195.57,89c2.05-2,6.46-5,7.72-7.72,1.15-2.47.21-7.24.21-10V30.82c0-.93.38-2.83,0-3.72-.69-1.64-3.45-3.45-4.67-4.67L185.5,9.1c-.63-.63-6.63,2.65-7.42,3-.56.27-7.05,3.78-7.08,3.75Z"/><path d="M81.21,51.64l-10,10-6,6c-.57.57-1.89,1.46-2.18,2.24-.63,1.68,0,4.85,0,6.61V132c0,8.78.81,18,0,26.74-.23,2.45-3.5,4.64-5.73,6.87L45.21,177.64,59.5,171.1l-18-18c-.63-.63-6.63,2.65-7.42,3-.56.27-7,3.78-7.08,3.75l18,18c1,.94,13.17-5.43,14.29-6.55l10-10,6-6c.56-.56,1.88-1.46,2.17-2.23.63-1.69,0-4.85,0-6.61V91c0-8.78-.81-18,0-26.75.23-2.45,3.5-4.64,5.73-6.87L95.29,45.31c.56-.56-.75,0-.86.06A21.77,21.77,0,0,0,90,47.23c-2.6,1.16-6.72,2.33-8.8,4.41Z"/><path d="M54.21,51.64C48.62,57.23,41.83,62.57,37,68.83c-2.46,3.19-1,9.84-1,13.81v44.89c0,1,.29,4.88.18,5.14-.41,1-2.16,2.17-2.91,2.91l-6.06,6.06-9,9L32.5,144.1l-18-18c-.63-.63-6.63,2.65-7.42,3-.56.27-7,3.78-7.08,3.75l18,18c.95.94,13.17-5.43,14.29-6.55,5.59-5.59,12.38-10.93,17.19-17.19,2.45-3.19,1-9.84,1-13.81V68.43c0-1-.29-4.88-.18-5.15.41-1,2.17-2.17,2.91-2.91l6.06-6.06,9-9c.56-.56-.75,0-.86.06A21.77,21.77,0,0,0,63,47.23c-2.6,1.16-6.72,2.33-8.8,4.41Z"/><path d="M109.71,186.64l-10,10-6,6c-.57.57-1.89,1.46-2.18,2.24-.63,1.68,0,4.85,0,6.61V267c0,8.78.81,18,0,26.74-.23,2.45-3.5,4.64-5.73,6.87L73.71,312.64,88,306.1l-18-18c-.63-.63-6.63,2.65-7.42,3-.56.27-7,3.78-7.08,3.75l18,18c1,.94,13.17-5.43,14.29-6.55l10-10,6-6c.56-.56,1.88-1.46,2.17-2.23.63-1.69,0-4.85,0-6.61V226c0-8.78-.81-18,0-26.75.23-2.45,3.5-4.64,5.73-6.87l12.06-12.06c.56-.56-.75.05-.86.06a21.77,21.77,0,0,0-4.42,1.86c-2.6,1.16-6.72,2.33-8.8,4.41Z"/><path d="M82.71,186.64c-5.59,5.59-12.38,10.93-17.18,17.19-2.46,3.19-1,9.84-1,13.81v44.89c0,1,.29,4.88.18,5.14-.41,1-2.16,2.17-2.91,2.91l-6.06,6.06-9,9L61,279.1l-18-18c-.63-.63-6.63,2.65-7.42,3-.56.27-7,3.78-7.08,3.75l18,18c1,.94,13.17-5.43,14.29-6.55,5.59-5.59,12.38-10.93,17.19-17.19,2.45-3.19,1-9.84,1-13.81V203.43c0-1-.29-4.88-.18-5.15.41-1,2.17-2.17,2.91-2.91l6.06-6.06,9-9c.56-.56-.75.05-.86.06a21.77,21.77,0,0,0-4.42,1.86c-2.6,1.16-6.72,2.33-8.8,4.41Z"/><path d="M178,153.1l-18-18c-.94-.95-13.17,5.43-14.29,6.54l-14.22,14.22c-1.06,1.06-3.44,2.63-4,4-.79,2,0,6,0,8.15v120.4a37.94,37.94,0,0,1,0,5.54c-.21,1.37-.27,1.13-1.75,2.61l-16,16L124,306.1l-18-18c-.63-.63-6.63,2.65-7.42,3-.56.27-7,3.78-7.08,3.75l18,18c1,.94,13.17-5.43,14.29-6.55L138,292.09c2.63-2.63,4-3.13,4-6.6V156.1c0-3-.3-2.7,1.75-4.75l16-16-14.29,6.55,18,18c.63.63,6.63-2.65,7.42-3,.57-.27,7.05-3.78,7.08-3.74Z"/><path d="M214,153.1l-18-18c-.94-.95-13.17,5.43-14.29,6.54l-14.22,14.22c-1.06,1.06-3.44,2.63-4,4-.79,2,0,6,0,8.15v120.4a37.94,37.94,0,0,1,0,5.54c-.21,1.37-.27,1.13-1.75,2.61l-16,16L160,306.1l-18-18c-.63-.63-6.63,2.65-7.42,3-.56.27-7.05,3.78-7.08,3.75l18,18c.95.94,13.17-5.43,14.29-6.55L174,292.09c2.63-2.63,4-3.13,4-6.6V156.1c0-3-.3-2.7,1.75-4.75l16-16-14.29,6.55,18,18c.63.63,6.63-2.65,7.42-3,.57-.27,7.05-3.78,7.08-3.74Z"/></g></g></svg>