<?xml version="1.0" encoding="UTF-8"?><svg xmlns="http://www.w3.org/2000/svg" viewBox="0 0 1162.28 147.31"><defs><style>.d{fill:#010101;}</style></defs><g id="a"/><g id="b"><g id="c"><g><path class="d" d="M1000.28,54.06c.01-.65,.1-1.31,.24-1.94,.16-.73,.72-1.56,.78-2.27l-3.62,4.36c-4.29,3.94-5.25,5.28-2.89,4.01,.64,.03,2.22-.76,2.92-.84,4.22-.49,8.05,1.42,9.59,5.44,.54,1.42,.78,2.92,.63,4.43-.07,.73-.38,1.39-.48,2.1-.06,.4-.44,.79-.47,1.17l3.62-4.36c4.29-3.94,5.25-5.28,2.89-4.01-1.72,.15-3.51,.83-5.35,.94-15.48,.89-31.01,4-46.3,6.44-5.19,.83-10.37,1.67-15.55,2.53l-10.28,12.26c21.89-10.96,45.09-23.27,63.11-40.01,6.18-5.74,12.28-12.44,16.76-19.6,3.19-5.1,3.14-11.21-.02-16.45-2.99-4.97-8.77-7.68-14.42-8.13-7.29-.58-12.55,2.84-17.22,8.04-5.3,5.91-11.34,12.33-12.11,20.62-.53,5.68,2.91,10.43,8.9,10.53,1.39,.02,4.61-4.87,5.45-5.87,.6-.71,4.18-6.4,4.84-6.39-10.88-.19-9.36-11.15-6.67-18.06,1.82-4.69-9.06,8.42-5.31,6.38,.9-.49,1.7-1.11,2.65-1.53,1.53-.68,3.17-1.08,4.82-1.31,1.76-.25,3.45-.28,5.2-.06,4.44,.54,8.97,2.42,11.97,5.82,3.54,4,5.39,10.75,3.15,15.78-.34,.76-.87,1.42-1.2,2.17,2.2-4.94,6.48-7.02,3-3.91-2.27,2.03-4.55,4.02-6.94,5.9-10.47,8.22-21.92,15.2-33.45,21.82-7.29,4.19-14.68,8.24-22.2,12.01-2.09,1.05-3.97,4.11-5.45,5.87-1.21,1.44-2.43,2.89-3.55,4.41-.18,.25-1.17,1.96-1.29,1.98,17.23-2.87,34.48-5.7,51.81-7.91,3.55-.45,7.09-.85,10.66-1.08,6.63-.43,9.68-4.98,13.72-9.87s10.11-13.71,2.3-18.99c-7.11-4.8-13.05,2.09-17.18,7-3.06,3.64-7.22,7.73-7.31,12.85,.02-.89,4.7-4.98,5.45-5.87,1.15-1.37,4.8-4.45,4.84-6.39h0Z"/><path class="d" d="M946.28,72.06h-9c-.41,0-1.67,1.55-1.72,1.61-1.29,1.38-2.52,2.81-3.73,4.26s-2.41,2.9-3.55,4.41c-.16,.21-1.26,1.98-1.29,1.98h9c.41,0,1.67-1.55,1.72-1.61,1.29-1.38,2.52-2.81,3.73-4.26s2.41-2.9,3.55-4.41c.16-.21,1.26-1.98,1.29-1.98h0Z"/></g><g><path class="d" d="M610.7,18.06c-2.89-.05-5.95-1.37-7.59-3.8s-1.36-4.96-1.15-7.64c.17-2.24,4.73-6.61-3.26,2.91s-4.49,4.24-2.44,3.76c.84-.2,1.61-.62,2.49-.78,6.85-1.24,11.76,4.71,10.33,11.35-2.03,9.5-8.48,18.74-13.53,26.87-2.57,4.14-5.08,7.87-7.85,12.02l-13.73,20.6c-1.7,2.55,2.05-1.6,2.26-1.85,2.41-2.68,4.92-5.47,6.93-8.48,7.87-11.8,16.03-23.45,23.44-35.55,3.21-5.24,6.3-10.56,8.98-16.09,1.87-3.86,4.32-8.54,4.1-12.96-.42-8.41-10.04-10.38-15.7-5.74-3.67,3.02-6.77,7.32-9.59,11.1-2.01,2.69-3.3,5.34-2.9,8.82,.54,4.62,4.38,7.64,8.93,7.72,1.39,.02,4.61-4.87,5.45-5.87,.6-.71,4.18-6.4,4.84-6.39h0Z"/><path class="d" d="M609.42,48.31c0,7.9,1.52,17.38-1.39,24.99-.22,.57-.62,1.14-.76,1.72-.17,.35-.36,.7-.56,1.04l6.07-7.34c-1.69,.3-3.68,2.18-5.54,2.67-5.05,1.33-10.69,.67-15.86,.67h-16.67c-1.42,0-4.59,4.84-5.45,5.87-.62,.73-4.15,6.39-4.84,6.39,8.37,0,16.74,.05,25.11,0,4.89-.03,9.51-.56,13.5-3.64,4.54-3.5,8.32-8.67,11.7-13.24,6.83-9.25,4.98-20.51,4.98-31.37,0,.85-4.72,5-5.45,5.87-1.13,1.35-4.84,4.48-4.84,6.39h0Z"/></g><path class="d" d="M972,120.31c2.17,.04,4.49,.8,6.15,2.21,1.53,1.3,2.34,2.97,2.69,4.93,.22,1.22,.22,2.5,0,3.72-.09,.78-.32,1.53-.68,2.24,8.63-8.38,11.02-11.32,7.15-8.82-4.19,1.66-8.66,2.37-12.09-1.63-4.82-5.61-.17-17.31,1.47-23.38s3.55-12.41,5.59-18.54c-.54,1.64-4.24,4.44-5.45,5.87-1.55,1.85-4.06,4.04-4.84,6.39-2.52,7.59-4.84,15.27-6.76,23.04-1.78,7.21-5.54,19.84,5.08,21.77,7.99,1.45,13.69-7.87,17.73-13.18,4.84-6.36,3.93-16.72-5.77-16.89-1.39-.02-4.61,4.87-5.45,5.87-.6,.71-4.18,6.4-4.84,6.39h0Z"/><path class="d" d="M582.42,120.31c2.17,.04,4.49,.8,6.15,2.21,1.53,1.3,2.34,2.97,2.69,4.93,.22,1.22,.22,2.5,0,3.72-.09,.78-.32,1.53-.68,2.24,8.63-8.38,11.02-11.32,7.15-8.82-4.19,1.66-8.66,2.37-12.09-1.63-4.82-5.61-.17-17.31,1.47-23.38s3.55-12.41,5.59-18.54c-.54,1.64-4.24,4.44-5.45,5.87-1.55,1.85-4.06,4.04-4.84,6.39-2.52,7.59-4.84,15.27-6.76,23.04-1.78,7.21-5.54,19.84,5.08,21.77,7.99,1.45,13.69-7.87,17.73-13.18,4.84-6.36,3.93-16.72-5.77-16.89-1.39-.02-4.61,4.87-5.45,5.87-.6,.71-4.18,6.4-4.84,6.39h0Z"/><g><g><path class="d" d="M1162.28,72.06h-37.97c-3.38,0-7.28-.52-10.53,.7-4.4,1.65-7.54,6.43-10.36,9.9s-6.35,7.4-5.21,12.4c1.71,7.52,11.43,13.05,17.78,16.26,1.58,.8,9.74-12.53,10.28-12.26-6.37-3.22-16.08-8.74-17.78-16.26-.23-1-.27-2.01-.15-3.02,.09-.98,.35-1.92,.77-2.82-8.77,8.54-10.98,11.37-6.62,8.49,1.33-.47,2.52-.95,3.95-1.09,1.22-.12,2.48-.03,3.7-.03h41.85c1.42,0,4.59-4.84,5.45-5.87,.62-.73,4.15-6.39,4.84-6.39h0Z"/><path class="d" d="M1108.28,81.06c-.05-3.6-2.07-7.23-5.56-8.47-3.74-1.32-8.48-.53-12.44-.53-1.42,0-4.59,4.84-5.45,5.87-1.21,1.44-2.42,2.9-3.55,4.41-.16,.21-1.26,1.98-1.29,1.98,3.95,0,8.7-.78,12.44,.53,3.5,1.23,5.52,4.86,5.56,8.47,0,.04,1.98-1.88,1.72-1.61,1.29-1.37,2.52-2.82,3.73-4.26s2.42-2.9,3.55-4.41c.35-.47,1.3-1.38,1.29-1.98h0Z"/></g><path class="d" d="M1099.28,18.06c-3.61-.06-7.17-2.05-8.45-5.53-.54-1.47-.68-3.21-.48-4.76,.12-.95,.69-1.91,.77-2.82l-7.69,9.15c.43-.34,.9-.61,1.4-.82,1.37-.41,2.63-.97,4.1-.97,10.24-.04,8.93,10.78,9.07,18,.25,13.09,3.84,27.16,11.62,37.81s20.06,16.05,33.38,16.2c1.4,.02,4.6-4.86,5.45-5.87,.61-.72,4.17-6.39,4.84-6.39-12.98-.15-24.88-5.02-32.85-15.49-6.02-7.9-9.35-17.64-11.02-27.35-.68-3.92-1.08-7.88-1.13-11.86-.06-5.88,1.48-13.68-5.17-16.47-2.74-1.15-5.67-1.02-8.33,.3-3.29,1.64-5.72,5.11-8,7.83-2.56,3.05-5.91,6.36-6.62,10.44-1.02,5.85,2.93,10.76,8.84,10.86,1.39,.02,4.61-4.87,5.45-5.87,.6-.71,4.18-6.4,4.84-6.39h0Z"/></g><path class="d" d="M1008,84.31h72c1.42,0,4.59-4.84,5.45-5.87,1.11-1.33,4.86-4.5,4.84-6.39-.11-9.63-12.16-14.76-19.83-16.46-11.36-2.51-24.63-2.49-36.02-.05-7.9,1.7-12.4,7.82-16.94,14.27-1.23,1.75-2.25,3.7-.5,5.49,.04,.04,11.07-11.45,10.28-12.26-.35-.35-.76-.91-.84-1.41-.06-.39,0-1.1-.11-1.44-1.33-4.14-12.64,11.98-8.66,10.09,.51-.24,.92-.69,1.46-.91,10.13-4.1,23.11-3.72,33.75-2.66,9.23,.92,26.98,5.16,27.12,17.58l10.28-12.26h-72c-1.42,0-4.59,4.84-5.45,5.87-.62,.73-4.15,6.39-4.84,6.39h0Z"/><path class="d" d="M468,12.31c0,12.33,0,24.67,0,37,0,5.87-.42,11.9,.04,17.75,.41,5.18,3.29,9.55,6.37,13.57-.34-.45,11.34-10.88,10.28-12.26-2.9-3.77-5.74-7.97-6.33-12.82-.73-6.01-.09-12.45-.09-18.5,0-12.33,0-24.67,0-37,0,.85-4.72,5-5.45,5.87-1.13,1.35-4.84,4.48-4.84,6.39h0Z"/><path class="d" d="M468,66.31c-.02,2.43-.59,4.97-1.48,7.22-.38,.96-.92,1.81-1.36,2.74,2.13-4.55,10.94-10.41,4.98-6.69-2.96,1.84-6.43,2.41-9.86,2.48-1.45,.03-4.57,4.82-5.45,5.87-1.21,1.44-2.42,2.9-3.55,4.41-.16,.21-1.25,1.98-1.29,1.98,11.38-.21,18.37-9.55,24.33-18.3,2.35-3.45,3.93-7.73,3.95-11.95,0-.03-1.97,1.88-1.72,1.61-1.29,1.37-2.52,2.82-3.73,4.26s-2.42,2.9-3.55,4.41c-.35,.48-1.29,1.37-1.29,1.98h0Z"/><path class="d" d="M918,48.31c0,6.03,.29,12.12,0,18.14-.11,2.33-.55,4.67-1.39,6.85-.36,.95-.96,1.82-1.32,2.76,3.77-9.78,8.92-8.59,3.95-5.97-2.77,1.47-5.87,1.88-8.96,1.96-1.47,.04-4.56,4.81-5.45,5.87-.64,.76-4.09,6.37-4.84,6.39,8.32-.22,12.85-4.31,18.02-10.35,4.08-4.77,8.34-9.57,9.74-15.84,1.57-7.05,.52-14.91,.52-22.06,0,.85-4.72,5-5.45,5.87-1.13,1.35-4.84,4.48-4.84,6.39h0Z"/><path class="d" d="M935.1,68.51c-4.7-3.47-6.71-8.73-6.81-14.45,0-.04-1.98,1.88-1.72,1.61-1.29,1.38-2.52,2.82-3.73,4.26s-2.41,2.9-3.55,4.41c-.35,.46-1.3,1.38-1.29,1.98,.1,5.72,2.11,10.98,6.81,14.45,.73,.54,10.51-12.09,10.28-12.26h0Z"/><path class="d" d="M555.42,48.31c0,6.03,.29,12.12,0,18.14-.11,2.33-.55,4.67-1.39,6.85-.36,.95-.96,1.82-1.32,2.76,3.77-9.78,8.92-8.59,3.95-5.97-2.77,1.47-5.87,1.88-8.96,1.96-1.47,.04-4.56,4.81-5.45,5.87-.64,.76-4.09,6.37-4.84,6.39,8.32-.22,12.85-4.31,18.02-10.35,4.08-4.77,8.34-9.57,9.74-15.84,1.57-7.05,.52-14.91,.52-22.06,0,.85-4.72,5-5.45,5.87-1.13,1.35-4.84,4.48-4.84,6.39h0Z"/><path class="d" d="M572.51,68.51c-4.7-3.47-6.71-8.73-6.81-14.45,0-.04-1.98,1.88-1.72,1.61-1.29,1.38-2.52,2.82-3.73,4.26s-2.41,2.9-3.55,4.41c-.35,.46-1.3,1.38-1.29,1.98,.1,5.72,2.11,10.98,6.81,14.45,.73,.54,10.51-12.09,10.28-12.26h0Z"/><path class="d" d="M66.24,72.06c-6.71-1.13-14.17-.74-19.9,3.32-3.55,2.52-6.34,6.28-9.07,9.6-2.43,2.96-5.12,5.98-6.35,9.67-6.35,19,7.06,37.32,16.33,52.66-.59-.98,11.46-10.31,10.28-12.26-7.39-12.22-16.5-24.72-17.66-39.42-.28-3.53-.08-7.11,.66-10.58,.19-1.16,.51-2.29,.95-3.38,2-3.96,.06-1.84-5.8,6.34,1.25-.56,2.33-1.63,3.62-2.22,5.18-2.36,11.14-2.41,16.65-1.48,1.13,.19,4.75-5.04,5.45-5.87,.49-.58,4.48-6.45,4.84-6.39h0Z"/><path class="d" d="M39.53,90.06c-.04-4.92-2.05-10.25-5.65-13.63-6.25-5.88-15.73-4.37-23.6-4.37-1.42,0-4.59,4.84-5.45,5.87-.62,.73-4.15,6.39-4.84,6.39H2.25c1.42,0,4.59-4.84,5.45-5.87,.62-.73,4.15-6.39,4.84-6.39h-2.25L0,84.31c7.88,0,17.35-1.52,23.6,4.37,3.6,3.39,5.61,8.71,5.65,13.63,0-.83,4.73-5.01,5.45-5.87,1.12-1.33,4.85-4.5,4.84-6.39h0Z"/><path class="d" d="M5.76,66.31c12.2,0,24.39,0,36.59,0,4.52,0,8.53,.13,12.02-3.06s7.14-7.65,9.89-11.71c3.85-5.69,2.41-14.43-5.38-15.6-7.5-1.13-15.13,5.04-20.2,9.82-2.63,2.48-4.92,5.45-7.15,8.29-.47,.6-3.53,4.54-1.43,2.55,4.62-4.36,11.75-9.46,18.49-8.4s9.56,8.77,6.03,14.34l4.73-6.1-.72,.85,5.18-5.72c-2.99,2.65-6.5,2.48-10.23,2.48-4.17,0-8.34,0-12.52,0-8.34,0-16.69,0-25.03,0-1.42,0-4.59,4.84-5.45,5.87-.62,.73-4.15,6.39-4.84,6.39h0Z"/><path class="d" d="M120.24,72.06c-6.71-1.13-14.17-.74-19.9,3.32-3.55,2.52-6.34,6.28-9.07,9.6-2.43,2.96-5.12,5.98-6.35,9.67-6.35,19,7.06,37.32,16.33,52.66-.59-.98,11.46-10.31,10.28-12.26-7.39-12.22-16.5-24.72-17.66-39.42-.28-3.53-.08-7.11,.66-10.58,.19-1.16,.51-2.29,.95-3.38,2-3.96,.06-1.84-5.8,6.34,1.25-.56,2.33-1.63,3.62-2.22,5.18-2.36,11.14-2.41,16.65-1.48,1.13,.19,4.75-5.04,5.45-5.87,.49-.58,4.48-6.45,4.84-6.39h0Z"/><path class="d" d="M93.53,90.06c-.04-4.92-2.05-10.25-5.65-13.63-6.25-5.88-15.73-4.37-23.6-4.37-1.42,0-4.59,4.84-5.45,5.87-.62,.73-4.15,6.39-4.84,6.39h2.25c1.42,0,4.59-4.84,5.45-5.87,.62-.73,4.15-6.39,4.84-6.39h-2.25l-10.28,12.26c7.88,0,17.35-1.52,23.6,4.37,3.6,3.39,5.61,8.71,5.65,13.63,0-.83,4.73-5.01,5.45-5.87,1.12-1.33,4.85-4.5,4.84-6.39h0Z"/><path class="d" d="M59.76,66.31c12.2,0,24.39,0,36.59,0,4.52,0,8.53,.13,12.02-3.06s7.14-7.65,9.89-11.71c3.85-5.69,2.41-14.43-5.38-15.6s-15.13,5.04-20.2,9.82c-2.63,2.48-4.92,5.45-7.15,8.29-.47,.6-3.53,4.54-1.43,2.55,4.62-4.36,11.75-9.46,18.49-8.4s9.56,8.77,6.03,14.34l4.73-6.1-.72,.85,5.18-5.72c-2.99,2.65-6.5,2.48-10.23,2.48-4.17,0-8.34,0-12.52,0-8.34,0-16.69,0-25.03,0-1.42,0-4.59,4.84-5.45,5.87-.62,.73-4.15,6.39-4.84,6.39h0Z"/><g><path class="d" d="M181.28,54.06c.01-.65,.1-1.31,.24-1.94,.16-.73,.72-1.56,.78-2.27l-3.62,4.36c-4.29,3.94-5.25,5.28-2.89,4.01,.64,.03,2.22-.76,2.92-.84,4.22-.49,8.05,1.42,9.59,5.44,.54,1.42,.78,2.92,.63,4.43-.07,.73-.38,1.39-.48,2.1-.06,.4-.44,.79-.47,1.17l3.62-4.36c4.29-3.94,5.25-5.28,2.89-4.01-1.72,.15-3.51,.83-5.35,.94-15.48,.89-31.01,4-46.3,6.44-5.19,.83-10.37,1.67-15.55,2.53l-10.28,12.26c21.89-10.96,45.09-23.27,63.11-40.01,6.18-5.74,12.28-12.44,16.76-19.6,3.19-5.1,3.14-11.21-.02-16.45-2.99-4.97-8.77-7.68-14.42-8.13-7.29-.58-12.55,2.84-17.22,8.04-5.3,5.91-11.34,12.33-12.11,20.62-.53,5.68,2.91,10.43,8.9,10.53,1.39,.02,4.61-4.87,5.45-5.87,.6-.71,4.18-6.4,4.84-6.39-10.88-.19-9.36-11.15-6.67-18.06,1.82-4.69-9.06,8.42-5.31,6.38,.9-.49,1.7-1.11,2.65-1.53,1.53-.68,3.17-1.08,4.82-1.31,1.76-.25,3.45-.28,5.2-.06,4.44,.54,8.97,2.42,11.97,5.82,3.54,4,5.39,10.75,3.15,15.78-.34,.76-.87,1.42-1.2,2.17,2.2-4.94,6.48-7.02,3-3.91-2.27,2.03-4.55,4.02-6.94,5.9-10.47,8.22-21.92,15.2-33.45,21.82-7.29,4.19-14.68,8.24-22.2,12.01-2.09,1.05-3.97,4.11-5.45,5.87-1.21,1.44-2.43,2.89-3.55,4.41-.18,.25-1.17,1.96-1.29,1.98,17.23-2.87,34.48-5.7,51.81-7.91,3.55-.45,7.09-.85,10.66-1.08,6.63-.43,9.68-4.98,13.72-9.87s10.11-13.71,2.3-18.99c-7.11-4.8-13.05,2.09-17.18,7-3.06,3.64-7.22,7.73-7.31,12.85,.02-.89,4.7-4.98,5.45-5.87,1.15-1.37,4.8-4.45,4.84-6.39h0Z"/><path class="d" d="M127.28,72.06h-9c-.41,0-1.67,1.55-1.72,1.61-1.29,1.38-2.52,2.81-3.73,4.26s-2.41,2.9-3.55,4.41c-.16,.21-1.26,1.98-1.29,1.98h9c.41,0,1.67-1.55,1.72-1.61,1.29-1.38,2.52-2.81,3.73-4.26s2.41-2.9,3.55-4.41c.16-.21,1.26-1.98,1.29-1.98h0Z"/></g><path class="d" d="M153,120.31c2.17,.04,4.49,.8,6.15,2.21,1.53,1.3,2.34,2.97,2.69,4.93,.22,1.22,.22,2.5,0,3.72-.09,.78-.32,1.53-.68,2.24,8.63-8.38,11.02-11.32,7.15-8.82-4.19,1.66-8.66,2.37-12.09-1.63-4.82-5.61-.17-17.31,1.47-23.38s3.55-12.41,5.59-18.54c-.54,1.64-4.24,4.44-5.45,5.87-1.55,1.85-4.06,4.04-4.84,6.39-2.52,7.59-4.84,15.27-6.76,23.04-1.78,7.21-5.54,19.84,5.08,21.77,7.99,1.45,13.69-7.87,17.73-13.18,4.84-6.36,3.93-16.72-5.77-16.89-1.39-.02-4.61,4.87-5.45,5.87-.6,.71-4.18,6.4-4.84,6.39h0Z"/><path class="d" d="M547.7,72.06c-6.71-1.13-14.17-.74-19.9,3.32-3.55,2.52-6.34,6.28-9.07,9.6-2.43,2.96-5.12,5.98-6.35,9.67-6.35,19,7.06,37.32,16.33,52.66-.59-.98,11.46-10.31,10.28-12.26-7.39-12.22-16.5-24.72-17.66-39.42-.28-3.53-.08-7.11,.66-10.58,.19-1.16,.51-2.29,.95-3.38,2-3.96,.06-1.84-5.8,6.34,1.25-.56,2.33-1.63,3.62-2.22,5.18-2.36,11.14-2.41,16.65-1.48,1.13,.19,4.75-5.04,5.45-5.87,.49-.58,4.48-6.45,4.84-6.39h0Z"/><path class="d" d="M521,90.06c-.04-4.92-2.05-10.25-5.65-13.63-6.25-5.88-15.73-4.37-23.6-4.37-1.42,0-4.59,4.84-5.45,5.87-.62,.73-4.15,6.39-4.84,6.39h2.25c1.42,0,4.59-4.84,5.45-5.87,.62-.73,4.15-6.39,4.84-6.39h-2.25l-10.28,12.26c7.88,0,17.35-1.52,23.6,4.37,3.6,3.39,5.61,8.71,5.65,13.63,0-.83,4.73-5.01,5.45-5.87,1.12-1.33,4.85-4.5,4.84-6.39h0Z"/><path class="d" d="M816.42,84.31h72c1.42,0,4.59-4.84,5.45-5.87,1.12-1.33,4.85-4.5,4.84-6.39-.2-23.47-30.95-20.58-44.25-9.73-4.23,3.45-7.96,8.17-10.93,12.7-.07,.1-.11,.21-.18,.31,.06-.1,8.57-10.16,8.53-10.18-.38-.16-1.21,.31-1.97-.17-1.3-.81-1.84-3.2-2.22-4.52-3.84-13.35-2.96-28.72-2.98-42.42,0,.85-4.72,5-5.45,5.87-1.13,1.35-4.83,4.48-4.84,6.39,0,8.03-.32,16.07-.9,24.08-.43,5.94-.99,11.9-2.09,17.76-.46,2.43-.97,4.91-1.85,7.22-.31,.82-.93,1.66-1.17,2.49l8.57-10.22-.32,.21c-.33,.13-.59,.18-.94,.21-1.55,.11-4.5,4.74-5.45,5.87-.69,.82-3.99,6.32-4.84,6.39,2.57-.19,4.72-3.67,6.16-5.34,2.72-3.15,5.84-6.38,7.62-10.19,2.55-5.46,3.15-12.01,3.81-17.91,1.22-10.87,1.68-21.88,1.69-32.81l-10.28,12.26c.02,12.01,0,24.22,1.74,36.14,.38,2.59,.76,9.27,3.53,10.85,2.24,1.28,4.28-1.96,5.53-3.36,2.88-3.21,6.4-6.69,8.38-10.6l-9.33,11.26c-.73,.71,1.44-1.11,1.95-1.46,2.27-1.58,4.76-2.83,7.33-3.83,6.85-2.65,15.73-4.33,22.93-2.19s11.86,9.67,11.93,17.19l10.28-12.26h-72c-1.42,0-4.59,4.84-5.45,5.87-.62,.73-4.15,6.39-4.84,6.39h0Z"/><path class="d" d="M745.7,54.06c.01-.87,.24-1.69,.39-2.54,.08-.46,.59-1.18,.64-1.68l-3.62,4.36c-4.29,3.94-5.25,5.28-2.89,4.01,1.79-.19,3.14-1.09,5.08-.85,4.89,.62,8.73,5.27,11.5,8.95,3.03,4.02,5.47,8.5,7.82,12.85,.09,.17-.04,.49,.05,.65v.22c-.44,2.59,.97,1.05,4.22-4.61,6.64-7.82,5.19-4.94,1.57-3.99s-7.78,.63-11.56,.63h-23.95c-2.68,0-5.51-.27-8.18,.07-4.29,.55-6.84,3.45-9.56,6.55-4.9,5.58-10.26,10.71-8.24,18.66,1.33,5.21,4.71,10.17,8.45,13.98,.06,.06,11.06-11.47,10.28-12.26-3.61-3.68-6.8-8.36-8.26-13.33-.5-1.71-.84-3.52-.71-5.32,.07-.93,.34-1.74,.51-2.63,1.1-5.8-11.81,9.93-6.86,7.99,1.64-.65,2.98-1.3,4.78-1.45,13.48-1.15,27.31,1.43,40.75-.25,6.87-.86,10.6-6.83,14.57-12,2.18-2.84,3.21-4.65,1.18-7.85-3.98-6.27-7.81-14.28-14.65-17.92-7.2-3.83-12.04,2.1-16.29,7.15-3.06,3.64-7.22,7.73-7.31,12.85,.02-.89,4.7-4.98,5.45-5.87,1.15-1.37,4.8-4.45,4.84-6.39h0Z"/><path class="d" d="M690.42,84.31c7.34,0,17.61-1.35,18,9,0,.05,1.98-1.89,1.72-1.61,1.29-1.37,2.52-2.82,3.73-4.26s2.42-2.9,3.55-4.41c.34-.46,1.31-1.39,1.29-1.98-.39-10.34-10.66-9-18-9-1.42,0-4.59,4.84-5.45,5.87-1.21,1.44-2.42,2.9-3.55,4.41-.16,.21-1.26,1.98-1.29,1.98h0Z"/><path class="d" d="M733.17,102.31c-.16,3.82,2.26,7.08,5.82,8.47s6.73-.02,9.76-1.9c6.98-4.34,12.69-12.1,17.36-18.72,2.02-2.85,3.73-5.88,5.09-9.1,1.53-3.63,1.94-5.8-1.88-8.07s-9.64-1.43-13.87-1.35c-5.35,.09-10.7,.38-16.05,.42-1.43,0-4.58,4.84-5.45,5.87-.62,.74-4.14,6.38-4.84,6.39,7.13-.04,14.26-.57,21.39-.42,3.15,.07,6.45-.21,9.1,1.72,3.01,2.19,2.89,3.84,1.52,7.13-.53,1.26-1.11,2.5-1.75,3.71l-.66,1.21c-1.75,2.81-.72,1.75,3.09-3.19-2.8,1.35-4.79,3.99-8.1,4.58-5.31,.95-10.47-3.75-10.25-9-.04,.95-4.67,4.94-5.45,5.87-1.19,1.41-4.75,4.4-4.84,6.39h0Z"/><path class="d" d="M754.7,18.06c.02-1.77,.35-3.59,.83-5.29,.27-.94,.65-1.82,.99-2.73,1.82-4.79,3.95,1.39-5.18,5.62,2.52-1.17,4.36-2.55,7.23-3.03,5.71-.97,12.19,.53,16.55,4.44,3.86,3.46,5.11,8.24,5.29,13.26,.24,6.49,.99,12.83,2.24,19.2,1.16,5.88,2.61,11.7,4.24,17.47,.68,2.4,1.11,6.17,2.51,8.29,1.25,1.9,4.41,3.33,6.34,4.33,6.41,3.31,13.52,4.6,20.68,4.72,1.39,.02,4.61-4.87,5.45-5.87,.6-.72,4.18-6.4,4.84-6.39-7.16-.11-14.27-1.41-20.68-4.72-1.92-.99-5.11-2.42-6.34-4.33-1.74-2.69-2.26-7.36-3.09-10.39-1.89-6.91-3.53-13.92-4.66-21-1.77-11.13,.87-25.09-11.96-30.07-7.14-2.78-15.24-1.57-20.8,3.88-6.53,6.41-14.68,15.04-14.76,24.88,0-.87,4.71-4.99,5.45-5.87,1.14-1.36,4.82-4.46,4.84-6.39h0Z"/><path class="d" d="M744.42,84.31h31.93c2.95,0,5.83,.24,8.57-1.12,3.86-1.92,6.73-6.24,9.36-9.47s5.2-6.2,5.42-10.66c-.05,.97-4.66,4.93-5.45,5.87-1.2,1.43-4.73,4.38-4.84,6.39-.04,.82-.21,1.63-.25,2.44-1.42,3.44-.34,2.47,3.26-2.91,4.38-4.27,5.49-5.68,3.31-4.24-.95,.28-1.79,.9-2.79,1.14-.82,.2-1.63,.27-2.46,.31-3.51,.19-7.08,0-10.59,0h-25.18c-1.42,0-4.59,4.84-5.45,5.87-.62,.73-4.15,6.39-4.84,6.39h0Z"/><g><g><path class="d" d="M334.28,72.06h-37.97c-3.38,0-7.28-.52-10.53,.7-4.4,1.65-7.54,6.43-10.36,9.9s-6.35,7.4-5.21,12.4c1.71,7.52,11.43,13.05,17.78,16.26,1.58,.8,9.74-12.53,10.28-12.26-6.37-3.22-16.08-8.74-17.78-16.26-.23-1-.27-2.01-.15-3.02,.09-.98,.35-1.92,.77-2.82-8.77,8.54-10.98,11.37-6.62,8.49,1.33-.47,2.52-.95,3.95-1.09,1.22-.12,2.48-.03,3.7-.03h41.85c1.42,0,4.59-4.84,5.45-5.87,.62-.73,4.15-6.39,4.84-6.39h0Z"/><path class="d" d="M280.28,81.06c-.05-3.6-2.07-7.23-5.56-8.47-3.74-1.32-8.48-.53-12.44-.53-1.42,0-4.59,4.84-5.45,5.87-1.21,1.44-2.42,2.9-3.55,4.41-.16,.21-1.26,1.98-1.29,1.98,3.95,0,8.7-.78,12.44,.53,3.5,1.23,5.52,4.86,5.56,8.47,0,.04,1.98-1.88,1.72-1.61,1.29-1.37,2.52-2.82,3.73-4.26s2.42-2.9,3.55-4.41c.35-.47,1.3-1.38,1.29-1.98h0Z"/></g><path class="d" d="M271.28,18.06c-3.61-.06-7.17-2.05-8.45-5.53-.54-1.47-.68-3.21-.48-4.76,.12-.95,.69-1.91,.77-2.82l-7.69,9.15c.43-.34,.9-.61,1.4-.82,1.37-.41,2.63-.97,4.1-.97,10.24-.04,8.93,10.78,9.07,18,.25,13.09,3.84,27.16,11.62,37.81s20.06,16.05,33.38,16.2c1.4,.02,4.6-4.86,5.45-5.87,.61-.72,4.17-6.39,4.84-6.39-12.98-.15-24.88-5.02-32.85-15.49-6.02-7.9-9.35-17.64-11.02-27.35-.68-3.92-1.08-7.88-1.13-11.86-.06-5.88,1.48-13.68-5.17-16.47-2.74-1.15-5.67-1.02-8.33,.3-3.29,1.64-5.72,5.11-8,7.83-2.56,3.05-5.91,6.36-6.62,10.44-1.02,5.85,2.93,10.76,8.84,10.86,1.39,.02,4.61-4.87,5.45-5.87,.6-.71,4.18-6.4,4.84-6.39h0Z"/></g><path class="d" d="M324,84.31h72c1.42,0,4.59-4.84,5.45-5.87,1.11-1.33,4.86-4.5,4.84-6.39-.11-9.63-12.16-14.76-19.83-16.46-11.36-2.51-24.63-2.49-36.02-.05-7.9,1.7-12.4,7.82-16.94,14.27-1.23,1.75-2.25,3.7-.5,5.49,.04,.04,11.07-11.45,10.28-12.26-.35-.35-.76-.91-.84-1.41-.06-.39,0-1.1-.11-1.44-1.33-4.14-12.64,11.98-8.66,10.09,.51-.24,.92-.69,1.46-.91,10.13-4.1,23.11-3.72,33.75-2.66,9.23,.92,26.98,5.16,27.12,17.58l10.28-12.26h-72c-1.42,0-4.59,4.84-5.45,5.87-.62,.73-4.15,6.39-4.84,6.39h0Z"/><path class="d" d="M460.28,72.06c-3.61-.06-7.18-2.05-8.45-5.53-1.39-3.78-.55-8.75-.55-12.71v-8.77c0,.85-4.72,5-5.45,5.87-1.13,1.35-4.84,4.48-4.84,6.39v7.95c0,4.19-.92,9.53,.55,13.52,1.28,3.48,4.84,5.46,8.45,5.53,1.39,.02,4.61-4.87,5.45-5.87,.6-.71,4.18-6.4,4.84-6.39h0Z"/><path class="d" d="M441,75.31c0,1.16-.27,2.39-.69,3.47-.19,.48-.45,.91-.68,1.37-2.06,4.08,4.79-7.47,8.25-9.84-.27,.19-.52,.41-.8,.59-1.43,.88-3.14,1.13-4.8,1.16-.42,0-1.65,1.54-1.72,1.61-1.29,1.38-2.52,2.81-3.73,4.26s-2.41,2.9-3.55,4.41c-.16,.21-1.25,1.98-1.29,1.98,2.18-.04,4.27-.57,6-1.95,1.57-1.25,2.88-2.87,4.19-4.37,2.38-2.72,4.79-5.5,6.84-8.48,1.29-1.88,2.24-4.14,2.25-6.46,0-.03-1.97,1.88-1.72,1.61-1.29,1.38-2.52,2.81-3.73,4.26s-2.41,2.9-3.55,4.41c-.36,.47-1.29,1.37-1.29,1.98h0Z"/><path class="d" d="M442.28,72.06c-3.61-.06-7.18-2.05-8.45-5.53-1.39-3.78-.55-8.75-.55-12.71v-8.77c0,.85-4.72,5-5.45,5.87-1.13,1.35-4.84,4.48-4.84,6.39v7.95c0,4.19-.92,9.53,.55,13.52,1.28,3.48,4.84,5.46,8.45,5.53,1.39,.02,4.61-4.87,5.45-5.87,.6-.71,4.18-6.4,4.84-6.39h0Z"/><path class="d" d="M423,75.31c0,1.16-.27,2.39-.69,3.47-.19,.48-.45,.91-.68,1.37-2.06,4.08,4.79-7.47,8.25-9.84-.27,.19-.52,.41-.8,.59-1.43,.88-3.14,1.13-4.8,1.16-.42,0-1.65,1.54-1.72,1.61-1.29,1.38-2.52,2.81-3.73,4.26s-2.41,2.9-3.55,4.41c-.16,.21-1.25,1.98-1.29,1.98,2.18-.04,4.27-.57,6-1.95,1.57-1.25,2.88-2.87,4.19-4.37,2.38-2.72,4.79-5.5,6.84-8.48,1.29-1.88,2.24-4.14,2.25-6.46,0-.03-1.97,1.88-1.72,1.61-1.29,1.38-2.52,2.81-3.73,4.26s-2.41,2.9-3.55,4.41c-.36,.47-1.29,1.37-1.29,1.98h0Z"/><path class="d" d="M424.28,72.06c-3.61-.06-7.18-2.05-8.45-5.53-1.39-3.78-.55-8.75-.55-12.71v-8.77c0,.85-4.72,5-5.45,5.87-1.13,1.35-4.84,4.48-4.84,6.39v7.95c0,4.19-.92,9.53,.55,13.52,1.28,3.48,4.84,5.46,8.45,5.53,1.39,.02,4.61-4.87,5.45-5.87,.6-.71,4.18-6.4,4.84-6.39h0Z"/><path class="d" d="M405,75.31c0,1.16-.27,2.39-.69,3.47-.19,.48-.45,.91-.68,1.37-2.06,4.08,4.79-7.47,8.25-9.84-.27,.19-.52,.41-.8,.59-1.43,.88-3.14,1.13-4.8,1.16-.42,0-1.65,1.54-1.72,1.61-1.29,1.38-2.52,2.81-3.73,4.26s-2.41,2.9-3.55,4.41c-.16,.21-1.25,1.98-1.29,1.98,2.18-.04,4.27-.57,6-1.95,1.57-1.25,2.88-2.87,4.19-4.37,2.38-2.72,4.79-5.5,6.84-8.48,1.29-1.88,2.24-4.14,2.25-6.46,0-.03-1.97,1.88-1.72,1.61-1.29,1.38-2.52,2.81-3.73,4.26s-2.41,2.9-3.55,4.41c-.36,.47-1.29,1.37-1.29,1.98h0Z"/><path class="d" d="M262.28,72.06c-7.66,.04-15.48,4.17-21.01,9.18-7.12,6.46-14.1,14.71-18.48,23.32-5.28,10.38-6.72,22.25-6.79,33.75l10.28-12.26V26.23c0-5.74,.45-11.69,0-17.43-.61-7.61-8.96-11.53-15.17-6.65-4.17,3.27-8.21,8.54-11.06,13.02-1.17,1.84-2.01,3.92-2.04,6.14,.02-.89,4.7-4.98,5.45-5.87,1.15-1.37,4.8-4.45,4.84-6.39,0-.44,.02-.98,.14-1.41,2.09-7.66,.44,4.51-6.36,5.92,4.08-.84,8.03-2.37,11.47,1.28,1.81,1.93,2.36,4.47,2.47,7,.31,6.91,0,13.91,0,20.82v95.64c0-.85,4.72-5,5.45-5.87,1.14-1.36,4.82-4.47,4.84-6.39,.07-9.98,1.11-20.19,4.92-29.51,.63-1.54,1.33-3.06,2.12-4.53,1.01-1.89,4.92-6.95,.06-1.15s-1.27,1.71,.34,.46c.97-.76,1.98-1.47,3.02-2.11,4.41-2.74,9.98-4.88,15.26-4.91,1.43,0,4.58-4.84,5.45-5.87,.62-.74,4.14-6.38,4.84-6.39h0Z"/><path class="d" d="M627.42,84.31c4.56,0,10.18,.95,14.31-1.57,4.65-2.85,8.59-8.63,11.65-13.01,1.95-2.78,2.57-5.58,2.11-8.93-2.1-15.44-8.17-30.9-12.89-45.68-1.61-5.03-3.23-10.06-4.9-15.07,.07,.22-4.98,5.32-5.45,5.87-.74,.88-5.25,5.14-4.84,6.39,4.73,14.19,9.28,28.45,13.38,42.83,1.8,6.31,4.61,13.52,4.62,20.17,0,3.82-3.74,7.57,3.01-.47s4.42-4.4,1.44-3.36c-1.01,.35-2.05,.49-3.1,.57-2.98,.24-6.08,0-9.07,0-1.42,0-4.59,4.84-5.45,5.87-.62,.73-4.15,6.39-4.84,6.39h0Z"/><path class="d" d="M681.42,84.31c4.56,0,10.18,.95,14.31-1.57,4.65-2.85,8.59-8.63,11.65-13.01,1.95-2.78,2.57-5.58,2.11-8.93-2.1-15.44-8.17-30.9-12.89-45.68-1.61-5.03-3.23-10.06-4.9-15.07,.07,.22-4.98,5.32-5.45,5.87-.74,.88-5.25,5.14-4.84,6.39,4.73,14.19,9.28,28.45,13.38,42.83,1.8,6.31,4.61,13.52,4.62,20.17,0,3.82-3.74,7.57,3.01-.47s4.42-4.4,1.44-3.36c-1.01,.35-2.05,.49-3.1,.57-2.98,.24-6.08,0-9.07,0-1.42,0-4.59,4.84-5.45,5.87-.62,.73-4.15,6.39-4.84,6.39h0Z"/><path class="d" d="M654.42,57.31l9,18s5.04-5.38,5.45-5.87c.61-.73,5.32-5.42,4.84-6.39l-9-18s-5.04,5.38-5.45,5.87c-.61,.73-5.32,5.42-4.84,6.39h0Z"/><path class="d" d="M672.42,57.31l9,18s5.04-5.38,5.45-5.87c.61-.73,5.32-5.42,4.84-6.39l-9-18s-5.04,5.38-5.45,5.87c-.61,.73-5.32,5.42-4.84,6.39h0Z"/><path class="d" d="M663.42,120.31c2.17,.04,4.49,.8,6.15,2.21,1.53,1.3,2.34,2.97,2.69,4.93,.22,1.22,.22,2.5,0,3.72-.09,.78-.32,1.53-.68,2.24,8.63-8.38,11.02-11.32,7.15-8.82-4.19,1.66-8.66,2.37-12.09-1.63-4.82-5.61-.17-17.31,1.47-23.38s3.55-12.41,5.59-18.54c-.54,1.64-4.24,4.44-5.45,5.87-1.55,1.85-4.06,4.04-4.84,6.39-2.52,7.59-4.84,15.27-6.76,23.04-1.78,7.21-5.54,19.84,5.08,21.77,7.99,1.45,13.69-7.87,17.73-13.18,4.84-6.36,3.93-16.72-5.77-16.89-1.39-.02-4.61,4.87-5.45,5.87-.6,.71-4.18,6.4-4.84,6.39h0Z"/></g></g></svg>