<?xml version="1.0" encoding="UTF-8"?><svg xmlns="http://www.w3.org/2000/svg" viewBox="0 0 199.29 147.26"><defs><style>.d{fill:#010101;}</style></defs><g id="a"/><g id="b"><g id="c"><path class="d" d="M66.24,72c-6.71-1.13-14.17-.74-19.9,3.32-3.55,2.52-6.34,6.28-9.07,9.6-2.43,2.96-5.12,5.98-6.35,9.67-6.35,19,7.06,37.32,16.33,52.66-.59-.98,11.46-10.31,10.28-12.26-7.39-12.22-16.5-24.72-17.66-39.42-.28-3.53-.08-7.11,.66-10.58,.19-1.16,.51-2.29,.95-3.38,2-3.96,.06-1.84-5.8,6.34,1.25-.56,2.33-1.63,3.62-2.22,5.18-2.36,11.14-2.41,16.65-1.48,1.13,.19,4.75-5.04,5.45-5.87,.49-.58,4.48-6.45,4.84-6.39h0Z"/><path class="d" d="M39.53,90c-.04-4.92-2.05-10.25-5.65-13.63-6.25-5.88-15.73-4.37-23.6-4.37-1.42,0-4.59,4.84-5.45,5.87-.62,.73-4.15,6.39-4.84,6.39H2.25c1.42,0,4.59-4.84,5.45-5.87,.62-.73,4.15-6.39,4.84-6.39h-2.25c-1.42,0-4.59,4.84-5.45,5.87-.62,.73-4.15,6.39-4.84,6.39,7.88,0,17.35-1.52,23.6,4.37,3.6,3.39,5.61,8.71,5.65,13.63,0-.83,4.73-5.01,5.45-5.87,1.12-1.33,4.85-4.5,4.84-6.39h0Z"/><path class="d" d="M5.76,66.26c12.2,0,24.39,0,36.59,0,4.52,0,8.53,.13,12.02-3.06s7.14-7.65,9.89-11.71c3.85-5.69,2.41-14.43-5.38-15.6s-15.13,5.04-20.2,9.82c-2.63,2.48-4.92,5.45-7.15,8.29-.47,.6-3.53,4.54-1.43,2.55,4.62-4.36,11.75-9.46,18.49-8.4s9.56,8.77,6.03,14.34l4.73-6.1-.72,.85,5.18-5.72c-2.99,2.65-6.5,2.48-10.23,2.48-4.17,0-8.34,0-12.52,0H16.04c-1.42,0-4.59,4.84-5.45,5.87-.62,.73-4.15,6.39-4.84,6.39h0Z"/><path class="d" d="M120.24,72c-6.71-1.13-14.17-.74-19.9,3.32-3.55,2.52-6.34,6.28-9.07,9.6-2.43,2.96-5.12,5.98-6.35,9.67-6.35,19,7.06,37.32,16.33,52.66-.59-.98,11.46-10.31,10.28-12.26-7.39-12.22-16.5-24.72-17.66-39.42-.28-3.53-.08-7.11,.66-10.58,.19-1.16,.51-2.29,.95-3.38,2-3.96,.06-1.84-5.8,6.34,1.25-.56,2.33-1.63,3.62-2.22,5.18-2.36,11.14-2.41,16.65-1.48,1.13,.19,4.75-5.04,5.45-5.87,.49-.58,4.48-6.45,4.84-6.39h0Z"/><path class="d" d="M93.53,90c-.04-4.92-2.05-10.25-5.65-13.63-6.25-5.88-15.73-4.37-23.6-4.37-1.42,0-4.59,4.84-5.45,5.87-.62,.73-4.15,6.39-4.84,6.39h2.25c1.42,0,4.59-4.84,5.45-5.87,.62-.73,4.15-6.39,4.84-6.39h-2.25c-1.42,0-4.59,4.84-5.45,5.87-.62,.73-4.15,6.39-4.84,6.39,7.88,0,17.35-1.52,23.6,4.37,3.6,3.39,5.61,8.71,5.65,13.63,0-.83,4.73-5.01,5.45-5.87,1.12-1.33,4.85-4.5,4.84-6.39h0Z"/><path class="d" d="M59.76,66.26c12.2,0,24.39,0,36.59,0,4.52,0,8.53,.13,12.02-3.06s7.14-7.65,9.89-11.71c3.85-5.69,2.41-14.43-5.38-15.6s-15.13,5.04-20.2,9.82c-2.63,2.48-4.92,5.45-7.15,8.29-.47,.6-3.53,4.54-1.43,2.55,4.62-4.36,11.75-9.46,18.49-8.4s9.56,8.77,6.03,14.34l4.73-6.1-.72,.85,5.18-5.72c-2.99,2.65-6.5,2.48-10.23,2.48-4.17,0-8.34,0-12.52,0h-25.03c-1.42,0-4.59,4.84-5.45,5.87-.62,.73-4.15,6.39-4.84,6.39h0Z"/><g><path class="d" d="M181.28,54c.01-.65,.1-1.31,.24-1.94,.16-.73,.72-1.56,.78-2.27l-3.62,4.36c-4.29,3.94-5.25,5.28-2.89,4.01,.64,.03,2.22-.76,2.92-.84,4.22-.49,8.05,1.42,9.59,5.44,.54,1.42,.78,2.92,.63,4.43-.07,.73-.38,1.39-.48,2.1-.06,.4-.44,.79-.47,1.17l3.62-4.36c4.29-3.94,5.25-5.28,2.89-4.01-1.72,.15-3.51,.83-5.35,.94-15.48,.89-31.01,4-46.3,6.44-5.19,.83-10.37,1.67-15.55,2.53l-10.28,12.26c21.89-10.96,45.09-23.27,63.11-40.01,6.18-5.74,12.28-12.44,16.76-19.6,3.19-5.1,3.14-11.21-.02-16.45-2.99-4.97-8.77-7.68-14.42-8.13-7.29-.58-12.55,2.84-17.22,8.04-5.3,5.91-11.34,12.33-12.11,20.62-.53,5.68,2.91,10.43,8.9,10.53,1.39,.02,4.61-4.87,5.45-5.87,.6-.71,4.18-6.4,4.84-6.39-10.88-.19-9.36-11.15-6.67-18.06,1.82-4.69-9.06,8.42-5.31,6.38,.9-.49,1.7-1.11,2.65-1.53,1.53-.68,3.17-1.08,4.82-1.31,1.76-.25,3.45-.28,5.2-.06,4.44,.54,8.97,2.42,11.97,5.82,3.54,4,5.39,10.75,3.15,15.78-.34,.76-.87,1.42-1.2,2.17,2.2-4.94,6.48-7.02,3-3.91-2.27,2.03-4.55,4.02-6.94,5.9-10.47,8.22-21.92,15.2-33.45,21.82-7.29,4.19-14.68,8.24-22.2,12.01-2.09,1.05-3.97,4.11-5.45,5.87-1.21,1.44-2.43,2.89-3.55,4.41-.18,.25-1.17,1.96-1.29,1.98,17.23-2.87,34.48-5.7,51.81-7.91,3.55-.45,7.09-.85,10.66-1.08,6.63-.43,9.68-4.98,13.72-9.87s10.11-13.71,2.3-18.99c-7.11-4.8-13.05,2.09-17.18,7-3.06,3.64-7.22,7.73-7.31,12.85,.02-.89,4.7-4.98,5.45-5.87,1.15-1.37,4.8-4.45,4.84-6.39h0Z"/><path class="d" d="M127.28,72h-9c-.41,0-1.67,1.55-1.72,1.61-1.29,1.38-2.52,2.81-3.73,4.26s-2.41,2.9-3.55,4.41c-.16,.21-1.26,1.98-1.29,1.98h9c.41,0,1.67-1.55,1.72-1.61,1.29-1.38,2.52-2.81,3.73-4.26s2.41-2.9,3.55-4.41c.16-.21,1.26-1.98,1.29-1.98h0Z"/></g><path class="d" d="M153,120.26c2.17,.04,4.49,.8,6.15,2.21,1.53,1.3,2.34,2.97,2.69,4.93,.22,1.22,.22,2.5,0,3.72-.09,.78-.32,1.53-.68,2.24,8.63-8.38,11.02-11.32,7.15-8.82-4.19,1.66-8.66,2.37-12.09-1.63-4.82-5.61-.17-17.31,1.47-23.38s3.55-12.41,5.59-18.54c-.54,1.64-4.24,4.44-5.45,5.87-1.55,1.85-4.06,4.04-4.84,6.39-2.52,7.59-4.84,15.27-6.76,23.04-1.78,7.21-5.54,19.84,5.08,21.77,7.99,1.45,13.69-7.87,17.73-13.18,4.84-6.36,3.93-16.72-5.77-16.89-1.39-.02-4.61,4.87-5.45,5.87-.6,.71-4.18,6.4-4.84,6.39h0Z"/></g></g></svg>