<?xml version="1.0" encoding="UTF-8"?><svg xmlns="http://www.w3.org/2000/svg" viewBox="0 0 154.28 111.25"><defs><style>.d{fill:#010101;}</style></defs><g id="a"/><g id="b"><g id="c"><g><g><path class="d" d="M154.28,71.96h-37.97c-3.38,0-7.28-.52-10.53,.7-4.4,1.65-7.54,6.43-10.36,9.9s-6.35,7.4-5.21,12.4c1.71,7.52,11.43,13.05,17.78,16.26,1.58,.8,9.74-12.53,10.28-12.26-6.37-3.22-16.08-8.74-17.78-16.26-.23-1-.27-2.01-.15-3.02,.09-.98,.35-1.92,.77-2.82-8.77,8.54-10.98,11.37-6.62,8.49,1.33-.47,2.52-.95,3.95-1.09,1.22-.12,2.48-.03,3.7-.03h41.85c1.42,0,4.59-4.84,5.45-5.87,.62-.73,4.15-6.39,4.84-6.39h0Z"/><path class="d" d="M100.28,80.96c-.05-3.6-2.07-7.23-5.56-8.47-3.74-1.32-8.48-.53-12.44-.53-1.42,0-4.59,4.84-5.45,5.87-1.21,1.44-2.42,2.9-3.55,4.41-.16,.21-1.26,1.98-1.29,1.98,3.95,0,8.7-.78,12.44,.53,3.5,1.23,5.52,4.86,5.56,8.47,0,.04,1.98-1.88,1.72-1.61,1.29-1.37,2.52-2.82,3.73-4.26s2.42-2.9,3.55-4.41c.35-.47,1.3-1.38,1.29-1.98h0Z"/></g><path class="d" d="M91.28,17.96c-3.61-.06-7.17-2.05-8.45-5.53-.54-1.47-.68-3.21-.48-4.76,.12-.95,.69-1.91,.77-2.82l-7.69,9.15c.43-.34,.9-.61,1.4-.82,1.37-.41,2.63-.97,4.1-.97,10.24-.04,8.93,10.78,9.07,18,.25,13.09,3.84,27.16,11.62,37.81s20.06,16.05,33.38,16.2c1.4,.02,4.6-4.86,5.45-5.87,.61-.72,4.17-6.39,4.84-6.39-12.98-.15-24.88-5.02-32.85-15.49-6.02-7.9-9.35-17.64-11.02-27.35-.68-3.92-1.08-7.88-1.13-11.86-.06-5.88,1.48-13.68-5.17-16.47-2.74-1.15-5.67-1.02-8.33,.3-3.29,1.64-5.72,5.11-8,7.83-2.56,3.05-5.91,6.36-6.62,10.44-1.02,5.85,2.93,10.76,8.84,10.86,1.39,.02,4.61-4.87,5.45-5.87,.6-.71,4.18-6.4,4.84-6.39h0Z"/></g><path class="d" d="M0,84.22H72c1.42,0,4.59-4.84,5.45-5.87,1.11-1.33,4.86-4.5,4.84-6.39-.11-9.63-12.16-14.76-19.83-16.46-11.36-2.51-24.63-2.49-36.02-.05-7.9,1.7-12.4,7.82-16.94,14.27-1.23,1.75-2.25,3.7-.5,5.49,.04,.04,11.07-11.45,10.28-12.26-.35-.35-.76-.91-.84-1.41-.06-.39,0-1.1-.11-1.44-1.33-4.14-12.64,11.98-8.66,10.09,.51-.24,.92-.69,1.46-.91,10.13-4.1,23.11-3.72,33.75-2.66,9.23,.92,26.98,5.16,27.12,17.58l10.28-12.26H10.28c-1.42,0-4.59,4.84-5.45,5.87-.62,.73-4.15,6.39-4.84,6.39H0Z"/></g></g></svg>