<?xml version="1.0" encoding="UTF-8"?><svg xmlns="http://www.w3.org/2000/svg" viewBox="0 0 271.31 138.22"><defs><style>.d{fill:#010101;}</style></defs><g id="a"/><g id="b"><g id="c"><path class="d" d="M189.03,84.26h72c1.42,0,4.59-4.84,5.45-5.87,1.12-1.33,4.85-4.5,4.84-6.39-.2-23.47-30.95-20.58-44.25-9.73-4.23,3.45-7.96,8.17-10.93,12.7-.07,.1-.11,.21-.18,.31,.06-.1,8.57-10.16,8.53-10.18-.38-.16-1.21,.31-1.97-.17-1.3-.81-1.84-3.2-2.22-4.52-3.84-13.35-2.96-28.72-2.98-42.42,0,.85-4.72,5-5.45,5.87-1.13,1.35-4.83,4.48-4.84,6.39,0,8.03-.32,16.07-.9,24.08-.43,5.94-.99,11.9-2.09,17.76-.46,2.43-.97,4.91-1.85,7.22-.31,.82-.93,1.66-1.17,2.49l8.57-10.22-.32,.21c-.33,.13-.59,.18-.94,.21-1.55,.11-4.5,4.74-5.45,5.87-.69,.82-3.99,6.32-4.84,6.39,2.57-.19,4.72-3.67,6.16-5.34,2.72-3.15,5.84-6.38,7.62-10.19,2.55-5.46,3.15-12.01,3.81-17.91,1.22-10.87,1.68-21.88,1.69-32.81l-10.28,12.26c.02,12.01,0,24.22,1.74,36.14,.38,2.59,.76,9.27,3.53,10.85,2.24,1.28,4.28-1.96,5.53-3.36,2.88-3.21,6.4-6.69,8.38-10.6l-9.33,11.26c-.73,.71,1.44-1.11,1.95-1.46,2.27-1.58,4.76-2.83,7.33-3.83,6.85-2.65,15.73-4.33,22.93-2.19s11.86,9.67,11.93,17.19l10.28-12.26h-72c-1.42,0-4.59,4.84-5.45,5.87-.62,.73-4.15,6.39-4.84,6.39h0Z"/><path class="d" d="M118.31,54c.01-.87,.24-1.69,.39-2.54,.08-.46,.59-1.18,.64-1.68l-3.62,4.36c-4.29,3.94-5.25,5.28-2.89,4.01,1.79-.19,3.14-1.09,5.08-.85,4.89,.62,8.73,5.27,11.5,8.95,3.03,4.02,5.47,8.5,7.82,12.85,.09,.17-.04,.49,.05,.65v.22c-.44,2.59,.97,1.05,4.22-4.61,6.64-7.82,5.19-4.94,1.57-3.99s-7.78,.63-11.56,.63h-23.95c-2.68,0-5.51-.27-8.18,.07-4.29,.55-6.84,3.45-9.56,6.55-4.9,5.58-10.26,10.71-8.24,18.66,1.33,5.21,4.71,10.17,8.45,13.98,.06,.06,11.06-11.47,10.28-12.26-3.61-3.68-6.8-8.36-8.26-13.33-.5-1.71-.84-3.52-.71-5.32,.07-.93,.34-1.74,.51-2.63,1.1-5.8-11.81,9.93-6.86,7.99,1.64-.65,2.98-1.3,4.78-1.45,13.48-1.15,27.31,1.43,40.75-.25,6.87-.86,10.6-6.83,14.57-12,2.18-2.84,3.21-4.65,1.18-7.85-3.98-6.27-7.81-14.28-14.65-17.92-7.2-3.83-12.04,2.1-16.29,7.15-3.06,3.64-7.22,7.73-7.31,12.85,.02-.89,4.7-4.98,5.45-5.87,1.15-1.37,4.8-4.45,4.84-6.39h0Z"/><path class="d" d="M63.03,84.26c7.34,0,17.61-1.35,18,9,0,.05,1.98-1.89,1.72-1.61,1.29-1.37,2.52-2.82,3.73-4.26s2.42-2.9,3.55-4.41c.34-.46,1.31-1.39,1.29-1.98-.39-10.34-10.66-9-18-9-1.42,0-4.59,4.84-5.45,5.87-1.21,1.44-2.42,2.9-3.55,4.41-.16,.21-1.26,1.98-1.29,1.98h0Z"/><path class="d" d="M105.78,102.26c-.16,3.82,2.26,7.08,5.82,8.47s6.73-.02,9.76-1.9c6.98-4.34,12.69-12.1,17.36-18.72,2.02-2.85,3.73-5.88,5.09-9.1,1.53-3.63,1.94-5.8-1.88-8.07s-9.64-1.43-13.87-1.35c-5.35,.09-10.7,.38-16.05,.42-1.43,0-4.58,4.84-5.45,5.87-.62,.74-4.14,6.38-4.84,6.39,7.13-.04,14.26-.57,21.39-.42,3.15,.07,6.45-.21,9.1,1.72,3.01,2.19,2.89,3.84,1.52,7.13-.53,1.26-1.11,2.5-1.75,3.71l-.66,1.21c-1.75,2.81-.72,1.75,3.09-3.19-2.8,1.35-4.79,3.99-8.1,4.58-5.31,.95-10.47-3.75-10.25-9-.04,.95-4.67,4.94-5.45,5.87-1.19,1.41-4.75,4.4-4.84,6.39h0Z"/><path class="d" d="M127.31,18c.02-1.77,.35-3.59,.83-5.29,.27-.94,.65-1.82,.99-2.73,1.82-4.79,3.95,1.39-5.18,5.62,2.52-1.17,4.36-2.55,7.23-3.03,5.71-.97,12.19,.53,16.55,4.44,3.86,3.46,5.11,8.24,5.29,13.26,.24,6.49,.99,12.83,2.24,19.2,1.16,5.88,2.61,11.7,4.24,17.47,.68,2.4,1.11,6.17,2.51,8.29,1.25,1.9,4.41,3.33,6.34,4.33,6.41,3.31,13.52,4.6,20.68,4.72,1.39,.02,4.61-4.87,5.45-5.87,.6-.72,4.18-6.4,4.84-6.39-7.16-.11-14.27-1.41-20.68-4.72-1.92-.99-5.11-2.42-6.34-4.33-1.74-2.69-2.26-7.36-3.09-10.39-1.89-6.91-3.53-13.92-4.66-21-1.77-11.13,.87-25.09-11.96-30.07-7.14-2.78-15.24-1.57-20.8,3.88-6.53,6.41-14.68,15.04-14.76,24.88,0-.87,4.71-4.99,5.45-5.87,1.14-1.36,4.82-4.46,4.84-6.39h0Z"/><path class="d" d="M117.03,84.26h32.13c2.89,0,5.69,.21,8.37-1.12,3.85-1.92,6.74-6.25,9.36-9.47s5.2-6.2,5.42-10.66c-.05,.97-4.66,4.93-5.45,5.87-1.2,1.43-4.73,4.38-4.84,6.39-.04,.83-.17,1.62-.25,2.44l-.58,1.67c8.63-8.38,11.02-11.32,7.15-8.82-.96,.37-1.77,.89-2.79,1.14-.79,.19-1.58,.27-2.38,.31-3.49,.21-7.06,0-10.55,0h-25.3c-1.42,0-4.59,4.84-5.45,5.87-.62,.73-4.15,6.39-4.84,6.39h0Z"/><path class="d" d="M.03,84.26c4.56,0,10.18,.95,14.31-1.57,4.65-2.85,8.59-8.63,11.65-13.01,1.95-2.78,2.57-5.58,2.11-8.93-2.1-15.44-8.17-30.9-12.89-45.68-1.61-5.03-3.23-10.06-4.9-15.07,.07,.22-4.98,5.32-5.45,5.87C4.12,6.75-.39,11.01,.03,12.26c4.73,14.19,9.28,28.45,13.38,42.83,1.8,6.31,4.61,13.52,4.62,20.17,0,3.82-3.74,7.57,3.01-.47s4.42-4.4,1.44-3.36c-1.01,.35-2.05,.49-3.1,.57-2.98,.24-6.08,0-9.07,0-1.42,0-4.59,4.84-5.45,5.87-.62,.73-4.15,6.39-4.84,6.39H.03Z"/><path class="d" d="M54.03,84.26c4.56,0,10.18,.95,14.31-1.57,4.65-2.85,8.59-8.63,11.65-13.01,1.95-2.78,2.57-5.58,2.11-8.93-2.1-15.44-8.17-30.9-12.89-45.68-1.61-5.03-3.23-10.06-4.9-15.07,.07,.22-4.98,5.32-5.45,5.87-.74,.88-5.25,5.14-4.84,6.39,4.73,14.19,9.28,28.45,13.38,42.83,1.8,6.31,4.61,13.52,4.62,20.17,0,3.82-3.74,7.57,3.01-.47s4.42-4.4,1.44-3.36c-1.01,.35-2.05,.49-3.1,.57-2.98,.24-6.08,0-9.07,0-1.42,0-4.59,4.84-5.45,5.87-.62,.73-4.15,6.39-4.84,6.39h0Z"/><path class="d" d="M27.03,57.26l9,18s5.04-5.38,5.45-5.87c.61-.73,5.32-5.42,4.84-6.39l-9-18s-5.04,5.38-5.45,5.87c-.61,.73-5.32,5.42-4.84,6.39h0Z"/><path class="d" d="M45.03,57.26l9,18s5.04-5.38,5.45-5.87c.61-.73,5.32-5.42,4.84-6.39l-9-18s-5.04,5.38-5.45,5.87c-.61,.73-5.32,5.42-4.84,6.39h0Z"/><path class="d" d="M36.03,120.26c2.17,.04,4.49,.8,6.15,2.21,1.53,1.3,2.34,2.97,2.69,4.93,.22,1.22,.22,2.5,0,3.72-.09,.78-.32,1.53-.68,2.24,8.63-8.38,11.02-11.32,7.15-8.82-4.19,1.66-8.66,2.37-12.09-1.63-4.82-5.61-.17-17.31,1.47-23.38s3.55-12.41,5.59-18.54c-.54,1.64-4.24,4.44-5.45,5.87-1.55,1.85-4.06,4.04-4.84,6.39-2.52,7.59-4.84,15.27-6.76,23.04-1.78,7.21-5.54,19.84,5.08,21.77,7.99,1.45,13.69-7.87,17.73-13.18,4.84-6.36,3.93-16.72-5.77-16.89-1.39-.02-4.61,4.87-5.45,5.87-.6,.71-4.18,6.4-4.84,6.39h0Z"/></g></g></svg>