<?xml version="1.0" encoding="UTF-8"?><svg xmlns="http://www.w3.org/2000/svg" viewBox="0 0 160.77 84.26"><defs><style>.d{fill:#010101;}</style></defs><g id="a"/><g id="b"><g id="c"><path class="d" d="M144,12.26V49.26c0,5.87-.42,11.9,.04,17.75,.41,5.18,3.29,9.55,6.37,13.57-.34-.45,11.34-10.88,10.28-12.26-2.9-3.77-5.74-7.97-6.33-12.82-.73-6.01-.09-12.45-.09-18.5V0c0,.85-4.72,5-5.45,5.87-1.13,1.35-4.84,4.48-4.84,6.39h0Z"/><path class="d" d="M144,66.26c-.02,2.43-.59,4.97-1.48,7.22-.38,.96-.92,1.81-1.36,2.74,2.13-4.55,10.94-10.41,4.98-6.69-2.96,1.84-6.43,2.41-9.86,2.48-1.45,.03-4.57,4.82-5.45,5.87-1.21,1.44-2.42,2.9-3.55,4.41-.16,.21-1.25,1.98-1.29,1.98,11.38-.21,18.37-9.55,24.33-18.3,2.35-3.45,3.93-7.73,3.95-11.95,0-.03-1.97,1.88-1.72,1.61-1.29,1.37-2.52,2.82-3.73,4.26s-2.42,2.9-3.55,4.41c-.35,.48-1.29,1.37-1.29,1.98h0Z"/><path class="d" d="M0,84.26H72c1.42,0,4.59-4.84,5.45-5.87,1.11-1.33,4.86-4.5,4.84-6.39-.11-9.63-12.16-14.76-19.83-16.46-11.36-2.51-24.63-2.49-36.02-.05-7.9,1.7-12.4,7.82-16.94,14.27-1.23,1.75-2.25,3.7-.5,5.49,.04,.04,11.07-11.45,10.28-12.26-.35-.35-.76-.91-.84-1.41-.06-.39,0-1.1-.11-1.44-1.33-4.14-12.64,11.98-8.66,10.09,.51-.24,.92-.69,1.46-.91,10.13-4.1,23.11-3.72,33.75-2.66,9.23,.92,26.98,5.16,27.12,17.58l10.28-12.26H10.28c-1.42,0-4.59,4.84-5.45,5.87-.62,.73-4.15,6.39-4.84,6.39H0Z"/><path class="d" d="M136.28,72c-3.61-.06-7.18-2.05-8.45-5.53-1.39-3.78-.55-8.75-.55-12.71v-8.77c0,.85-4.72,5-5.45,5.87-1.13,1.35-4.84,4.48-4.84,6.39v7.95c0,4.19-.92,9.53,.55,13.52,1.28,3.48,4.84,5.46,8.45,5.53,1.39,.02,4.61-4.87,5.45-5.87,.6-.71,4.18-6.4,4.84-6.39h0Z"/><path class="d" d="M117,75.26c0,1.16-.27,2.39-.69,3.47-.19,.48-.45,.91-.68,1.37-2.06,4.08,4.79-7.47,8.25-9.84-.27,.19-.52,.41-.8,.59-1.43,.88-3.14,1.13-4.8,1.16-.42,0-1.65,1.54-1.72,1.61-1.29,1.38-2.52,2.81-3.73,4.26s-2.41,2.9-3.55,4.41c-.16,.21-1.25,1.98-1.29,1.98,2.18-.04,4.27-.57,6-1.95,1.57-1.25,2.88-2.87,4.19-4.37,2.38-2.72,4.79-5.5,6.84-8.48,1.29-1.88,2.24-4.14,2.25-6.46,0-.03-1.97,1.88-1.72,1.61-1.29,1.38-2.52,2.81-3.73,4.26s-2.41,2.9-3.55,4.41c-.36,.47-1.29,1.37-1.29,1.98h0Z"/><path class="d" d="M118.28,72c-3.61-.06-7.18-2.05-8.45-5.53-1.39-3.78-.55-8.75-.55-12.71v-8.77c0,.85-4.72,5-5.45,5.87-1.13,1.35-4.84,4.48-4.84,6.39v7.95c0,4.19-.92,9.53,.55,13.52,1.28,3.48,4.84,5.46,8.45,5.53,1.39,.02,4.61-4.87,5.45-5.87,.6-.71,4.18-6.4,4.84-6.39h0Z"/><path class="d" d="M99,75.26c0,1.16-.27,2.39-.69,3.47-.19,.48-.45,.91-.68,1.37-2.06,4.08,4.79-7.47,8.25-9.84-.27,.19-.52,.41-.8,.59-1.43,.88-3.14,1.13-4.8,1.16-.42,0-1.65,1.54-1.72,1.61-1.29,1.38-2.52,2.81-3.73,4.26s-2.41,2.9-3.55,4.41c-.16,.21-1.25,1.98-1.29,1.98,2.18-.04,4.27-.57,6-1.95,1.57-1.25,2.88-2.87,4.19-4.37,2.38-2.72,4.79-5.5,6.84-8.48,1.29-1.88,2.24-4.14,2.25-6.46,0-.03-1.97,1.88-1.72,1.61-1.29,1.38-2.52,2.81-3.73,4.26s-2.41,2.9-3.55,4.41c-.36,.47-1.29,1.37-1.29,1.98h0Z"/><path class="d" d="M100.28,72c-3.61-.06-7.18-2.05-8.45-5.53-1.39-3.78-.55-8.75-.55-12.71v-8.77c0,.85-4.72,5-5.45,5.87-1.13,1.35-4.84,4.48-4.84,6.39v7.95c0,4.19-.92,9.53,.55,13.52,1.28,3.48,4.84,5.46,8.45,5.53,1.39,.02,4.61-4.87,5.45-5.87,.6-.71,4.18-6.4,4.84-6.39h0Z"/><path class="d" d="M81,75.26c0,1.16-.27,2.39-.69,3.47-.19,.48-.45,.91-.68,1.37-2.06,4.08,4.79-7.47,8.25-9.84-.27,.19-.52,.41-.8,.59-1.43,.88-3.14,1.13-4.8,1.16-.42,0-1.65,1.54-1.72,1.61-1.29,1.38-2.52,2.81-3.73,4.26s-2.41,2.9-3.55,4.41c-.16,.21-1.25,1.98-1.29,1.98,2.18-.04,4.27-.57,6-1.95,1.57-1.25,2.88-2.87,4.19-4.37,2.38-2.72,4.79-5.5,6.84-8.48,1.29-1.88,2.24-4.14,2.25-6.46,0-.03-1.97,1.88-1.72,1.61-1.29,1.38-2.52,2.81-3.73,4.26s-2.41,2.9-3.55,4.41c-.36,.47-1.29,1.37-1.29,1.98h0Z"/></g></g></svg>