<?xml version="1.0" encoding="UTF-8"?><svg xmlns="http://www.w3.org/2000/svg" viewBox="0 0 138.47 147.09"><defs><style>.d{fill:#010101;}</style></defs><g id="a"/><g id="b"><g id="c"><g><path class="d" d="M129.24,17.83c-2.89-.05-5.95-1.37-7.59-3.8s-1.36-4.96-1.15-7.64c.17-2.24,4.73-6.61-3.26,2.91-8.25,9.83-4.49,4.24-2.44,3.76,.84-.2,1.61-.62,2.49-.78,6.85-1.24,11.76,4.71,10.33,11.35-2.03,9.5-8.48,18.74-13.53,26.87-2.57,4.14-5.08,7.87-7.85,12.02l-13.73,20.6c-1.7,2.55,2.05-1.6,2.26-1.85,2.41-2.68,4.92-5.47,6.93-8.48,7.87-11.8,16.03-23.45,23.44-35.55,3.21-5.24,6.3-10.56,8.98-16.09,1.87-3.86,4.32-8.54,4.1-12.96-.42-8.41-10.04-10.38-15.7-5.74-3.67,3.02-6.77,7.32-9.59,11.1-2.01,2.69-3.3,5.34-2.9,8.82,.54,4.62,4.38,7.64,8.93,7.72,1.39,.02,4.61-4.87,5.45-5.87,.6-.71,4.18-6.4,4.84-6.39h0Z"/><path class="d" d="M127.96,48.09c0,7.9,1.52,17.38-1.39,24.99-.22,.57-.62,1.14-.76,1.72-.17,.35-.36,.7-.56,1.04l6.07-7.34c-1.69,.3-3.68,2.18-5.54,2.67-5.05,1.33-10.69,.67-15.86,.67h-16.67c-1.42,0-4.59,4.84-5.45,5.87-.62,.73-4.15,6.39-4.84,6.39,8.37,0,16.74,.05,25.11,0,4.89-.03,9.51-.56,13.5-3.64,4.54-3.5,8.32-8.67,11.7-13.24,6.83-9.25,4.98-20.51,4.98-31.37,0,.85-4.72,5-5.45,5.87-1.13,1.35-4.84,4.48-4.84,6.39h0Z"/></g><path class="d" d="M100.96,120.09c2.17,.04,4.49,.8,6.15,2.21,1.53,1.3,2.34,2.97,2.69,4.93,.22,1.22,.22,2.5,0,3.72-.09,.78-.32,1.53-.68,2.24,8.63-8.38,11.02-11.32,7.15-8.82-4.19,1.66-8.66,2.37-12.09-1.63-4.82-5.61-.17-17.31,1.47-23.38s3.55-12.41,5.59-18.54c-.54,1.64-4.24,4.44-5.45,5.87-1.55,1.85-4.06,4.04-4.84,6.39-2.52,7.59-4.84,15.27-6.76,23.04-1.78,7.21-5.54,19.84,5.08,21.77,7.99,1.45,13.69-7.87,17.73-13.18,4.84-6.36,3.93-16.72-5.77-16.89-1.39-.02-4.61,4.87-5.45,5.87-.6,.71-4.18,6.4-4.84,6.39h0Z"/><path class="d" d="M73.96,48.09c0,6.03,.29,12.12,0,18.14-.11,2.33-.55,4.67-1.39,6.85-.36,.95-.96,1.82-1.32,2.76,3.77-9.78,8.92-8.59,3.95-5.97-2.77,1.47-5.87,1.88-8.96,1.96-1.47,.04-4.56,4.81-5.45,5.87-.64,.76-4.09,6.37-4.84,6.39,8.32-.22,12.85-4.31,18.02-10.35,4.08-4.77,8.34-9.57,9.74-15.84,1.57-7.05,.52-14.91,.52-22.06,0,.85-4.72,5-5.45,5.87-1.13,1.35-4.84,4.48-4.84,6.39h0Z"/><path class="d" d="M91.05,68.29c-4.7-3.47-6.71-8.73-6.81-14.45,0-.04-1.98,1.88-1.72,1.61-1.29,1.38-2.52,2.82-3.73,4.26s-2.41,2.9-3.55,4.41c-.35,.46-1.3,1.38-1.29,1.98,.1,5.72,2.11,10.98,6.81,14.45,.73,.54,10.51-12.09,10.28-12.26h0Z"/><path class="d" d="M66.24,71.83c-6.71-1.13-14.17-.74-19.9,3.32-3.55,2.52-6.34,6.28-9.07,9.6-2.43,2.96-5.12,5.98-6.35,9.67-6.35,19,7.06,37.32,16.33,52.66-.59-.98,11.46-10.31,10.28-12.26-7.39-12.22-16.5-24.72-17.66-39.42-.28-3.53-.08-7.11,.66-10.58,.19-1.16,.51-2.29,.95-3.38,2-3.96,.06-1.84-5.8,6.34,1.25-.56,2.33-1.63,3.62-2.22,5.18-2.36,11.14-2.41,16.65-1.48,1.13,.19,4.75-5.04,5.45-5.87,.49-.58,4.48-6.45,4.84-6.39h0Z"/><path class="d" d="M39.53,89.83c-.04-4.92-2.05-10.25-5.65-13.63-6.25-5.88-15.73-4.37-23.6-4.37-1.42,0-4.59,4.84-5.45,5.87-.62,.73-4.15,6.39-4.84,6.39H2.25c1.42,0,4.59-4.84,5.45-5.87,.62-.73,4.15-6.39,4.84-6.39h-2.25c-1.42,0-4.59,4.84-5.45,5.87-.62,.73-4.15,6.39-4.84,6.39,7.88,0,17.35-1.52,23.6,4.37,3.6,3.39,5.61,8.71,5.65,13.63,0-.83,4.73-5.01,5.45-5.87,1.12-1.33,4.85-4.5,4.84-6.39h0Z"/></g></g></svg>